<svg width="180" height="180" viewBox="0 0 180 180" fill="none" xmlns="http://www.w3.org/2000/svg">
<path d="M90.0745 132.02C108.579 132.02 123.634 116.966 123.634 98.4612C123.634 79.957 108.579 64.902 90.0745 64.902C71.5695 64.902 56.5145 79.957 56.5145 98.4612C56.5145 116.965 71.5695 132.02 90.0745 132.02ZM90.0745 79.2942C100.643 79.2942 109.242 87.8918 109.242 98.4605C109.242 109.029 100.643 117.627 90.0745 117.627C79.5058 117.627 70.9074 109.029 70.9074 98.4605C70.9074 87.8925 79.5058 79.2942 90.0745 79.2942ZM146.044 75.1303H126.335V60.7374H146.044V75.1303ZM21.1137 25.2315V34.9978H8.63575V86.7073L0 90.4933V154.767H180V90.4933L171.514 86.7728V34.9978H60.3632V25.2315H21.1137ZM157.121 49.3907V88.2005H157.107V140.375H23.0287V96.113V88.2005V49.3907H23.7929H35.5066H45.9703H57.0766H157.121Z" fill="#242222"/>
</svg>
