<svg width="15" height="15" viewBox="0 0 15 15" fill="none" xmlns="http://www.w3.org/2000/svg">
<g clip-path="url(#clip0_143_517)">
<path d="M8.83819 7.5L14.9021 1.43638C15.0326 1.3057 15.0326 1.09396 14.9021 0.963277L14.0373 0.097971C13.9746 0.035396 13.8892 0 13.8006 0C13.7118 0 13.6266 0.035396 13.5639 0.097971L7.50009 6.16175L1.43632 0.097971C1.31069 -0.0276531 1.08836 -0.0274951 0.963052 0.097971L0.0983787 0.963277C-0.0323021 1.09396 -0.0323021 1.3057 0.0983787 1.43638L6.16215 7.5L0.0983787 13.5636C-0.0323021 13.6943 -0.0323021 13.906 0.0983787 14.0367L0.96321 14.902C1.02594 14.9646 1.11111 15 1.19992 15C1.28873 15 1.37374 14.9646 1.43647 14.902L7.50025 8.83825L13.564 14.902C13.6268 14.9646 13.7121 15 13.8007 15C13.8894 15 13.9747 14.9646 14.0374 14.902L14.9023 14.0367C15.0328 13.906 15.0328 13.6943 14.9023 13.5636L8.83819 7.5Z" fill="#F85656"/>
</g>
<defs>
<clipPath id="clip0_143_517">
<rect width="15" height="15" fill="white"/>
</clipPath>
</defs>
</svg>
