<svg width="18" height="17" viewBox="0 0 18 17" fill="none" xmlns="http://www.w3.org/2000/svg">
<path d="M17.6175 8.69117C17.6175 8.13159 17.565 7.60034 17.475 7.08325H9V10.2778H13.8525C13.635 11.3262 12.9975 12.2116 12.0525 12.8137V14.9387H14.9475C16.6425 13.4583 17.6175 11.2766 17.6175 8.69117Z" fill="#4285F4"/>
<path d="M9 17C11.43 17 13.4625 16.235 14.9475 14.9387L12.0525 12.8137C11.2425 13.3237 10.215 13.6354 9 13.6354C6.6525 13.6354 4.665 12.1408 3.9525 10.1221H0.967499V12.3108C2.445 15.0875 5.4825 17 9 17Z" fill="#34A853"/>
<path d="M3.9525 10.1221C3.765 9.61212 3.6675 9.06671 3.6675 8.50004C3.6675 7.93337 3.7725 7.38796 3.9525 6.87796V4.68921H0.967499C0.352499 5.83671 0 7.12587 0 8.50004C0 9.87421 0.352499 11.1634 0.967499 12.3109L3.9525 10.1221Z" fill="#FBBC05"/>
<path d="M9 3.36458C10.3275 3.36458 11.5125 3.79667 12.45 4.63959L15.015 2.21708C13.4625 0.842917 11.43 0 9 0C5.4825 0 2.445 1.9125 0.967499 4.68917L3.9525 6.87792C4.665 4.85917 6.6525 3.36458 9 3.36458Z" fill="#EA4335"/>
</svg>
