<svg width="600" height="364" viewBox="0 0 600 364" fill="none" xmlns="http://www.w3.org/2000/svg">
<path d="M415.385 106.392C414.692 81.3962 404.308 57.4687 386.308 38.6686C384.692 36.9595 383.077 35.464 381.462 33.9685C360.692 14.7411 332.769 3.41826 303.231 2.77734C300.923 2.77734 298.615 2.77734 296.538 2.77734C267 3.6319 239.077 14.7411 218.308 33.9685C216.692 35.464 215.077 36.9595 213.462 38.6686C195.462 57.4687 185.308 81.3962 184.385 106.392C184.385 107.46 184.385 108.528 184.385 109.596C184.385 110.665 184.385 111.733 184.385 112.801V114.297H206.538C208.615 153.82 239.538 186.72 281.308 194.411C283.615 194.838 286.154 195.265 288.462 195.479C290.538 195.693 292.615 195.906 294.692 195.906V216.416H296.308H299.769H303.231C309.923 216.202 316.385 215.561 323.077 214.279C325.385 213.852 327.692 213.425 330 212.784C379.154 200.606 413.769 159.801 415.385 112.801C415.385 111.733 415.385 110.665 415.385 109.596C415.385 108.528 415.385 107.46 415.385 106.392ZM253.615 104.896H239.077C239.538 99.1282 240.923 93.5736 243.231 88.4463L253.615 104.896ZM296.769 52.9823H298.385V43.5822H296.538C275.538 44.4368 255.923 54.0505 243.231 69.6461L236.769 59.3915C251.769 43.155 273.692 33.3276 296.769 32.4731C298.846 32.4731 301.154 32.4731 303.231 32.4731C326.308 33.3276 348.231 43.155 363.231 59.3915L334.615 104.896H264.923L248.538 78.6189C259.385 63.4506 277.385 54.0505 296.769 52.9823ZM306.231 175.183C341.538 172.192 369.231 145.488 371.077 112.587C371.077 111.519 371.077 110.451 371.077 109.383C371.077 108.315 371.077 107.246 371.077 106.178V104.683H346.385L369.692 67.2961C378 78.8326 382.615 92.5054 383.077 106.392C383.077 107.46 383.077 108.315 383.077 109.383C383.077 110.451 383.077 111.306 383.077 112.374C381.462 148.692 352.615 179.029 314.077 185.224C311.769 185.652 309.462 185.865 307.154 186.079L305.077 186.293V175.183H306.231ZM360.923 114.083C358.385 140.36 336.692 161.724 308.538 165.57L340.615 114.083H360.923ZM216.923 104.896C217.846 91.6508 222.462 78.6189 230.308 67.5097L237.231 78.6189C232.385 86.7372 229.615 95.71 228.923 104.896H216.923ZM305.077 195.693C307.154 195.693 309.231 195.479 311.077 195.265C313.385 195.052 315.923 194.624 318.231 194.197C360.692 186.506 391.615 152.751 393.231 112.587C393.231 111.519 393.231 110.451 393.231 109.383C393.231 108.315 393.231 107.246 393.231 106.178C392.538 88.4463 386.077 71.5689 374.538 57.4687C373.154 55.7596 371.538 54.0505 369.923 52.3414C353.077 34.6094 328.846 23.9275 303.231 23.073C300.923 23.073 298.615 23.073 296.538 23.073C270.923 23.9275 246.923 34.6094 229.846 52.5551C228.231 54.2642 226.615 55.9733 225.231 57.6824C214.154 71.3552 207.692 87.8054 206.769 104.896H194.769C195.692 83.319 204.462 62.8097 219.692 46.3595C221.077 44.6504 222.692 43.155 224.308 41.6595L225.462 40.5913C244.385 23.073 269.769 12.8183 296.538 12.1774C298.615 12.1774 300.923 12.1774 303 12.1774C330 12.8183 355.615 23.073 374.538 40.5913L375.692 41.6595C377.308 43.155 378.923 44.6504 380.308 46.3595C395.769 63.237 404.769 84.3871 405.231 106.392C405.231 107.46 405.231 108.315 405.231 109.383C405.231 110.451 405.231 111.519 405.231 112.374C403.846 155.956 371.308 193.343 325.615 204.025C323.308 204.452 321 205.093 318.923 205.306C314.308 206.161 309.692 206.588 305.077 206.802V195.693ZM259.385 114.297L293.077 168.347L294.923 171.338V186.506L292.846 186.293C290.538 186.079 288.231 185.865 285.923 185.438C247.846 179.243 219.462 149.76 216.923 114.297H259.385ZM329.077 114.297L300 160.656L270.923 114.083H329.077V114.297Z" fill="#FBEA92"/>
<path d="M156.923 333.703H164.308C170.769 333.703 173.077 335.839 173.077 339.685V340.753C173.077 344.598 171.231 345.666 169.385 346.094C172.154 346.521 174 348.871 173.769 351.435V353.357C173.769 357.844 171.231 360.194 164.538 360.194H156.923V333.703ZM163.846 344.812C167.308 344.812 168.231 343.957 168.231 341.18V340.112C168.231 337.762 167.077 336.907 164.077 336.907H162V345.025H163.846V344.812ZM162 357.416H164.308C168 357.416 168.923 356.135 168.923 353.357V351.648C168.923 348.871 167.769 347.803 164.077 347.803H162.231L162 357.416Z" fill="#FBEA92"/>
<path d="M185.308 360.407V350.794C185.308 350.58 185.308 350.153 185.077 349.939L177.923 333.703H183.692C185.308 338.189 187.385 343.53 188.077 346.307C188.769 343.316 190.846 338.189 192.462 333.703H198L190.615 350.153C190.615 350.366 190.615 350.794 190.615 351.007V360.407H185.308Z" fill="#FBEA92"/>
<path d="M214.154 333.703H221.538C228 333.703 230.308 335.839 230.308 339.685V340.753C230.308 344.598 228.462 345.666 226.615 346.094C229.385 346.521 231.231 348.871 231 351.435V353.357C231 357.844 228.462 360.194 221.769 360.194H214.154V333.703ZM221.077 344.812C224.538 344.812 225.462 343.957 225.462 341.18V340.112C225.462 337.762 224.308 336.907 221.308 336.907H219.231V345.025H221.077V344.812ZM219.231 357.416H221.538C225.231 357.416 226.154 356.135 226.154 353.357V351.648C226.154 348.871 225 347.803 221.077 347.803H219.231V357.416Z" fill="#FBEA92"/>
<path d="M243.462 352.716L241.846 360.407H236.538L242.769 333.703H250.154L256.615 360.407H251.308L249.692 352.716H243.462ZM249 349.512C247.846 344.385 247.154 340.112 246.692 337.121H246.462C246.231 339.257 245.077 345.025 244.154 349.512H249Z" fill="#FBEA92"/>
<path d="M268.154 348.23V360.407H263.077V333.703H270.692C276.462 333.703 279.692 335.412 279.692 339.898V340.966C280.154 343.53 278.308 345.88 275.769 346.521C278.077 347.162 279.231 348.444 279.231 352.076C279.231 354.853 279.231 357.63 279.692 360.194H274.615C274.154 357.63 274.154 354.853 274.154 352.289C274.154 348.871 273.462 348.016 270 348.016L268.154 348.23ZM268.154 345.239H270C273.462 345.239 274.385 344.171 274.385 341.18V340.112C274.385 337.975 273.692 336.48 270 336.48H268.154V345.239Z" fill="#FBEA92"/>
<path d="M291.231 337.121H285V333.703H302.538V337.121H296.308V360.407H291.231V337.121Z" fill="#FBEA92"/>
<path d="M322.385 348.016H313.846V357.203H323.538V360.407H308.538V333.703H322.846V337.121H313.846V344.812H322.385V348.016Z" fill="#FBEA92"/>
<path d="M329.769 360.407V333.703H335.769C337.615 337.975 342.462 351.435 342.923 353.144C342.692 349.726 342.692 345.88 342.692 341.607V333.703H347.538V360.407H341.769C340.154 356.348 334.846 341.821 334.385 340.325C334.615 343.53 334.615 347.375 334.615 352.289V360.621L329.769 360.407Z" fill="#FBEA92"/>
<path d="M356.308 333.703H364.154C372.462 333.703 374.077 336.907 374.077 341.607V352.076C374.077 356.135 373.154 360.621 364.154 360.621H356.538V333.703H356.308ZM361.385 357.416H363.462C367.615 357.416 368.538 355.707 368.538 352.503V341.18C368.538 338.403 367.846 336.694 363.462 336.694H361.385V357.416Z" fill="#FBEA92"/>
<path d="M395.308 348.016H386.769V357.203H396.462V360.407H381.462V333.703H395.769V337.121H386.769V344.812H395.308V348.016Z" fill="#FBEA92"/>
<path d="M408 348.23V360.407H402.923V333.703H410.538C416.308 333.703 419.538 335.412 419.538 339.898V340.966C420 343.53 418.154 345.88 415.615 346.521C417.923 347.162 419.308 348.444 419.308 352.076C419.308 354.853 419.308 357.63 419.769 360.194H414.692C414.231 357.63 414.231 354.853 414.231 352.289C414.231 348.871 413.538 348.016 409.846 348.016L408 348.23ZM408 345.239H409.846C413.308 345.239 414.231 344.171 414.231 341.18V340.112C414.231 337.975 413.538 336.48 409.846 336.48H408V345.239Z" fill="#FBEA92"/>
<path d="M430.846 352.289V353.785C430.846 355.921 431.769 356.989 434.308 356.989C436.846 356.989 437.538 355.707 437.538 353.571C437.538 350.794 436.615 349.726 432.692 347.589C428.769 345.453 426.462 344.171 426.462 340.325C426.462 336.907 427.846 333.703 434.308 333.703C440.769 333.703 441.923 336.694 441.923 339.685V340.966H436.846V339.685C436.846 337.762 436.385 336.48 434.077 336.48C431.769 336.48 431.308 337.762 431.308 339.685C431.308 341.607 431.769 342.675 435.231 344.385C440.769 347.162 442.385 348.657 442.385 352.93C442.385 356.562 440.769 360.407 434.077 360.407C427.385 360.407 425.769 356.989 425.769 353.785V352.289H430.846Z" fill="#FBEA92"/>
<path d="M597.692 345.025H482.308V349.298H597.692V345.025Z" fill="#FBEA92"/>
<path d="M117.692 345.025H2.30771V349.298H117.692V345.025Z" fill="#FBEA92"/>
<path d="M51 284.353L55.8461 293.753C49.6154 296.316 42.9231 297.598 36.2308 297.384C17.0769 297.171 2.30769 287.13 2.76923 274.525C3.23076 261.92 18.2308 252.52 37.1538 252.734C43.8461 252.734 50.5385 254.23 56.7692 257.007L51.6923 266.193C47.0769 264.27 42.2308 263.202 37.1538 262.989C26.3077 262.775 14.3077 267.475 14.0769 274.525C13.8461 281.575 25.8461 286.703 36.6923 286.916C41.5385 287.343 46.3846 286.489 51 284.353Z" fill="#FBEA92"/>
<path d="M109.154 297.385C100.154 297.385 90.6923 287.13 85.1538 287.13H78V297.385H66.6923V252.735H87.6923C104.538 252.735 113.538 261.067 113.538 270.039C113.538 276.448 109.615 282.003 103.385 284.567C104.769 286.703 112.154 288.412 114.462 286.062C120.692 288.412 118.154 297.385 109.154 297.385ZM102.231 270.039C102.231 265.339 97.1538 263.203 87.6923 263.203H78V276.876H87.6923C97.1538 276.876 102.231 274.526 102.231 270.039Z" fill="#FBEA92"/>
<path d="M175.385 297.598L171 289.052H144.923L140.538 297.598H128.077L151.385 252.948H164.769L187.846 297.598H175.385ZM158.077 263.843L150.231 278.584H165.692L158.077 263.843Z" fill="#FBEA92"/>
<path d="M209.308 269.825H229.385V280.293H209.308V297.598H198V252.948H239.077V263.416H209.308V269.825Z" fill="#FBEA92"/>
<path d="M296.538 263.203H278.538V297.599H267.231V263.203H249V252.735H296.538V263.203Z" fill="#FBEA92"/>
<path d="M355.846 283.712C355.846 291.403 345.692 297.385 332.308 297.385C314.769 297.385 304.846 291.403 304.615 291.19L311.077 282.644C311.077 282.644 318.692 287.13 332.538 287.13C339.923 287.13 344.769 285.421 344.769 283.499C344.769 281.576 335.077 280.08 331.154 279.653C321.231 278.158 309 276.235 309 266.407C309 258.503 319.154 252.735 332.538 252.735C345.923 252.735 352.615 256.153 353.308 256.58L347.538 265.339C347.538 265.339 342.692 262.776 332.538 262.776C325.385 262.776 320.308 264.698 320.308 266.194C320.308 267.689 329.077 268.757 332.769 269.185C342.462 270.894 355.846 273.03 355.846 283.712Z" fill="#FBEA92"/>
<path d="M414.923 297.385H403.615V280.08H377.308V297.385H366V252.735H377.308V269.826H403.615V252.735H414.923V297.385Z" fill="#FBEA92"/>
<path d="M472.385 297.384L468 288.839H441.923L437.538 297.384H425.077L448.385 252.948H462L485.077 297.384H472.385ZM455.077 263.843L447.231 278.584H462.462L455.077 263.843Z" fill="#FBEA92"/>
<path d="M530.769 297.384L512.308 279.439L506.308 284.566V297.598H495V252.948H506.308V270.679L527.308 252.948H543.923L520.615 272.602L546.462 297.598H530.769V297.384Z" fill="#FBEA92"/>
<path d="M567.692 270.039H587.769V280.294H567.692V287.13H597.231V297.385H556.385V252.735H597.462V263.203H567.692V270.039Z" fill="#FBEA92"/>
</svg>
