<svg width="120" height="120" viewBox="0 0 120 120" fill="none" xmlns="http://www.w3.org/2000/svg">
<path d="M115.046 0H4.9541C3.26432 0 1.88177 1.38255 1.88177 3.07233C1.88177 4.76211 3.26432 6.14466 4.9541 6.14466H11.5852V116.851C11.5852 117.977 12.1997 119.027 13.1982 119.565C14.1967 120.102 15.4 120.051 16.3473 119.411L29.6863 110.527L43.0766 119.437C44.1007 120.128 45.4576 120.128 46.4817 119.437L59.8208 110.553L73.211 119.462C74.2351 120.154 75.592 120.154 76.6161 119.462L89.9552 110.578L103.345 119.488C103.857 119.821 104.446 120 105.035 120C105.522 120 106.034 119.872 106.495 119.642C107.493 119.104 108.108 118.054 108.108 116.928L108.056 6.22146H115.046C116.736 6.22146 118.118 4.83892 118.118 3.14914C118.118 1.45936 116.736 0 115.046 0ZM101.988 111.116L91.6705 104.254C90.6464 103.563 89.2895 103.563 88.2654 104.254L74.9264 113.164L61.5361 104.254C60.512 103.563 59.1551 103.563 58.131 104.254L44.792 113.138L31.4017 104.254C30.3776 103.563 29.0207 103.563 27.9966 104.254L17.7299 111.09V6.11905H101.963L101.988 111.116Z" fill="#605F5E"/>
<path d="M31.8625 49.0548H64.0452C65.735 49.0548 67.1175 47.6723 67.1175 45.9825C67.1175 44.2927 65.735 42.9102 64.0452 42.9102H31.8625C30.1728 42.9102 28.7902 44.2927 28.7902 45.9825C28.7902 47.6723 30.1472 49.0548 31.8625 49.0548Z" fill="#605F5E"/>
<path d="M31.8625 59.7312H55.9803C57.6701 59.7312 59.0527 58.3487 59.0527 56.6589C59.0527 54.9691 57.6701 53.5865 55.9803 53.5865H31.8625C30.1728 53.5865 28.7902 54.9691 28.7902 56.6589C28.7902 58.3487 30.1472 59.7312 31.8625 59.7312Z" fill="#605F5E"/>
<path d="M80.1237 49.0548H88.163C89.8528 49.0548 91.2353 47.6723 91.2353 45.9825C91.2353 44.2927 89.8528 42.9102 88.163 42.9102H80.1237C78.4339 42.9102 77.0514 44.2927 77.0514 45.9825C77.0514 47.6723 78.4083 49.0548 80.1237 49.0548Z" fill="#605F5E"/>
<path d="M80.1237 59.7312H88.163C89.8528 59.7312 91.2353 58.3487 91.2353 56.6589C91.2353 54.9691 89.8528 53.5865 88.163 53.5865H80.1237C78.4339 53.5865 77.0514 54.9691 77.0514 56.6589C77.0514 58.3487 78.4083 59.7312 80.1237 59.7312Z" fill="#605F5E"/>
<path d="M31.8625 24.3994H64.0452C65.735 24.3994 67.1175 23.0169 67.1175 21.3271C67.1175 19.6373 65.735 18.2548 64.0452 18.2548H31.8625C30.1728 18.2548 28.7902 19.6373 28.7902 21.3271C28.7902 23.0169 30.1472 24.3994 31.8625 24.3994Z" fill="#605F5E"/>
<path d="M31.8625 35.0502H55.9803C57.6701 35.0502 59.0527 33.6676 59.0527 31.9778C59.0527 30.2881 57.6701 28.9055 55.9803 28.9055H31.8625C30.1728 28.9055 28.7902 30.2881 28.7902 31.9778C28.7902 33.6676 30.1472 35.0502 31.8625 35.0502Z" fill="#605F5E"/>
<path d="M80.1237 24.3994H88.163C89.8528 24.3994 91.2353 23.0169 91.2353 21.3271C91.2353 19.6373 89.8528 18.2548 88.163 18.2548H80.1237C78.4339 18.2548 77.0514 19.6373 77.0514 21.3271C77.0514 23.0169 78.4083 24.3994 80.1237 24.3994Z" fill="#605F5E"/>
<path d="M80.1237 35.0502H88.163C89.8528 35.0502 91.2353 33.6676 91.2353 31.9778C91.2353 30.2881 89.8528 28.9055 88.163 28.9055H80.1237C78.4339 28.9055 77.0514 30.2881 77.0514 31.9778C77.0514 33.6676 78.4083 35.0502 80.1237 35.0502Z" fill="#605F5E"/>
<path d="M31.8625 74.0175H64.0452C65.735 74.0175 67.1175 72.6349 67.1175 70.9451C67.1175 69.2554 65.735 67.8728 64.0452 67.8728H31.8625C30.1728 67.8728 28.7902 69.2554 28.7902 70.9451C28.7902 72.6349 30.1472 74.0175 31.8625 74.0175Z" fill="#605F5E"/>
<path d="M31.8625 84.6682H55.9803C57.6701 84.6682 59.0527 83.2857 59.0527 81.5959C59.0527 79.9061 57.6701 78.5236 55.9803 78.5236H31.8625C30.1728 78.5236 28.7902 79.9061 28.7902 81.5959C28.7902 83.2857 30.1472 84.6682 31.8625 84.6682Z" fill="#605F5E"/>
<path d="M80.1237 74.0175H88.163C89.8528 74.0175 91.2353 72.6349 91.2353 70.9451C91.2353 69.2554 89.8528 67.8728 88.163 67.8728H80.1237C78.4339 67.8728 77.0514 69.2554 77.0514 70.9451C77.0514 72.6349 78.4083 74.0175 80.1237 74.0175Z" fill="#605F5E"/>
<path d="M80.1237 84.6682H88.163C89.8528 84.6682 91.2353 83.2857 91.2353 81.5959C91.2353 79.9061 89.8528 78.5236 88.163 78.5236H80.1237C78.4339 78.5236 77.0514 79.9061 77.0514 81.5959C77.0514 83.2857 78.4083 84.6682 80.1237 84.6682Z" fill="#605F5E"/>
</svg>
