<svg width="240" height="180" viewBox="0 0 240 180" fill="none" xmlns="http://www.w3.org/2000/svg">
<path d="M90.753 154.368H88.353V162.576H90.753V164H84.097V162.576H86.497V154.368H84.097V152.96H90.753V154.368ZM93.6428 155.552H95.1948L95.3228 156.656C95.6748 156.229 96.0854 155.904 96.5548 155.68C97.0348 155.445 97.5361 155.328 98.0588 155.328C98.8374 155.328 99.4241 155.547 99.8188 155.984C100.213 156.421 100.411 157.04 100.411 157.84V164H98.6188V158.736C98.6188 158.213 98.5868 157.813 98.5228 157.536C98.4694 157.248 98.3574 157.04 98.1868 156.912C98.0161 156.773 97.7601 156.704 97.4188 156.704C97.0348 156.704 96.6668 156.821 96.3148 157.056C95.9734 157.291 95.6801 157.584 95.4348 157.936V164H93.6428V155.552ZM107.653 164H105.573L102.581 155.552H104.517L106.645 162.512L108.805 155.552H110.645L107.653 164ZM116.222 155.328C117.438 155.328 118.377 155.728 119.038 156.528C119.7 157.317 120.03 158.395 120.03 159.76C120.03 161.125 119.694 162.208 119.022 163.008C118.35 163.808 117.412 164.208 116.206 164.208C114.99 164.208 114.046 163.819 113.374 163.04C112.713 162.251 112.382 161.163 112.382 159.776C112.382 158.432 112.718 157.355 113.39 156.544C114.073 155.733 115.017 155.328 116.222 155.328ZM116.222 156.72C115.572 156.72 115.081 156.971 114.75 157.472C114.43 157.973 114.27 158.741 114.27 159.776C114.27 160.821 114.43 161.595 114.75 162.096C115.07 162.587 115.556 162.832 116.206 162.832C116.857 162.832 117.342 162.581 117.662 162.08C117.982 161.579 118.142 160.805 118.142 159.76C118.142 158.725 117.982 157.963 117.662 157.472C117.342 156.971 116.862 156.72 116.222 156.72ZM125.8 151.408C126.141 151.408 126.419 151.52 126.632 151.744C126.856 151.957 126.968 152.224 126.968 152.544C126.968 152.864 126.856 153.131 126.632 153.344C126.419 153.557 126.141 153.664 125.8 153.664C125.448 153.664 125.165 153.557 124.952 153.344C124.739 153.131 124.632 152.864 124.632 152.544C124.632 152.213 124.739 151.941 124.952 151.728C125.176 151.515 125.459 151.408 125.8 151.408ZM127.032 162.688H129.336V164H122.728V162.688H125.24V156.864H122.808V155.552H127.032V162.688ZM136.098 162.736C136.77 162.736 137.463 162.496 138.178 162.016L138.994 163.168C138.62 163.488 138.172 163.744 137.65 163.936C137.127 164.117 136.588 164.208 136.034 164.208C134.743 164.208 133.735 163.813 133.01 163.024C132.284 162.224 131.922 161.157 131.922 159.824C131.922 158.96 132.087 158.192 132.418 157.52C132.748 156.837 133.223 156.304 133.842 155.92C134.471 155.525 135.212 155.328 136.066 155.328C137.186 155.328 138.162 155.669 138.994 156.352L138.162 157.472C137.479 157.003 136.791 156.768 136.098 156.768C135.394 156.768 134.839 157.024 134.434 157.536C134.028 158.037 133.826 158.8 133.826 159.824C133.826 160.827 134.028 161.563 134.434 162.032C134.839 162.501 135.394 162.736 136.098 162.736ZM143.1 160.352C143.153 161.173 143.388 161.792 143.804 162.208C144.23 162.613 144.764 162.816 145.404 162.816C145.798 162.816 146.172 162.757 146.524 162.64C146.886 162.512 147.254 162.325 147.628 162.08L148.396 163.168C148.001 163.499 147.537 163.755 147.004 163.936C146.47 164.117 145.91 164.208 145.324 164.208C144.033 164.208 143.03 163.808 142.316 163.008C141.601 162.197 141.243 161.12 141.243 159.776C141.243 158.933 141.398 158.176 141.708 157.504C142.017 156.821 142.465 156.288 143.052 155.904C143.638 155.52 144.321 155.328 145.1 155.328C146.22 155.328 147.105 155.707 147.756 156.464C148.417 157.211 148.748 158.24 148.748 159.552C148.748 159.872 148.732 160.139 148.7 160.352H143.1ZM145.116 156.656C144.54 156.656 144.07 156.864 143.708 157.28C143.345 157.696 143.137 158.315 143.084 159.136H147.004C146.982 158.336 146.812 157.723 146.492 157.296C146.172 156.869 145.713 156.656 145.116 156.656ZM154.277 162.848C154.843 162.848 155.285 162.747 155.605 162.544C155.936 162.341 156.101 162.064 156.101 161.712C156.101 161.467 156.053 161.269 155.957 161.12C155.861 160.96 155.669 160.816 155.381 160.688C155.093 160.549 154.661 160.405 154.085 160.256C153.157 160.021 152.459 159.723 151.989 159.36C151.531 158.987 151.301 158.453 151.301 157.76C151.301 157.024 151.605 156.437 152.213 156C152.821 155.552 153.643 155.328 154.677 155.328C155.925 155.328 156.997 155.653 157.893 156.304L157.125 157.44C156.368 156.939 155.568 156.688 154.725 156.688C153.659 156.688 153.125 156.997 153.125 157.616C153.125 157.829 153.184 158.005 153.301 158.144C153.429 158.283 153.643 158.416 153.941 158.544C154.24 158.661 154.683 158.8 155.269 158.96C156.187 159.216 156.869 159.531 157.317 159.904C157.776 160.277 158.005 160.837 158.005 161.584C158.005 162.448 157.648 163.104 156.933 163.552C156.219 163.989 155.333 164.208 154.277 164.208C152.88 164.208 151.723 163.813 150.805 163.024L151.749 161.936C152.101 162.213 152.491 162.437 152.917 162.608C153.355 162.768 153.808 162.848 154.277 162.848Z" fill="#909090"/>
<path d="M175.046 12H64.9541C63.2643 12 61.8818 13.3825 61.8818 15.0723C61.8818 16.7621 63.2643 18.1447 64.9541 18.1447H71.5852V128.851C71.5852 129.977 72.1997 131.027 73.1982 131.565C74.1967 132.102 75.4 132.051 76.3473 131.411L89.6863 122.527L103.077 131.437C104.101 132.128 105.458 132.128 106.482 131.437L119.821 122.553L133.211 131.462C134.235 132.154 135.592 132.154 136.616 131.462L149.955 122.578L163.345 131.488C163.857 131.821 164.446 132 165.035 132C165.522 132 166.034 131.872 166.495 131.642C167.493 131.104 168.108 130.054 168.108 128.928L168.056 18.2215H175.046C176.736 18.2215 178.118 16.8389 178.118 15.1491C178.118 13.4594 176.736 12 175.046 12ZM161.988 123.116L151.671 116.254C150.646 115.563 149.289 115.563 148.265 116.254L134.926 125.164L121.536 116.254C120.512 115.563 119.155 115.563 118.131 116.254L104.792 125.138L91.4017 116.254C90.3776 115.563 89.0207 115.563 87.9966 116.254L77.7299 123.09V18.1191H161.963L161.988 123.116Z" fill="#605F5E"/>
<path d="M91.8625 61.0548H124.045C125.735 61.0548 127.118 59.6723 127.118 57.9825C127.118 56.2927 125.735 54.9102 124.045 54.9102H91.8625C90.1728 54.9102 88.7902 56.2927 88.7902 57.9825C88.7902 59.6723 90.1472 61.0548 91.8625 61.0548Z" fill="#605F5E"/>
<path d="M91.8625 71.7312H115.98C117.67 71.7312 119.053 70.3487 119.053 68.6589C119.053 66.9691 117.67 65.5865 115.98 65.5865H91.8625C90.1728 65.5865 88.7902 66.9691 88.7902 68.6589C88.7902 70.3487 90.1472 71.7312 91.8625 71.7312Z" fill="#605F5E"/>
<path d="M140.124 61.0548H148.163C149.853 61.0548 151.235 59.6723 151.235 57.9825C151.235 56.2927 149.853 54.9102 148.163 54.9102H140.124C138.434 54.9102 137.051 56.2927 137.051 57.9825C137.051 59.6723 138.408 61.0548 140.124 61.0548Z" fill="#605F5E"/>
<path d="M140.124 71.7312H148.163C149.853 71.7312 151.235 70.3487 151.235 68.6589C151.235 66.9691 149.853 65.5865 148.163 65.5865H140.124C138.434 65.5865 137.051 66.9691 137.051 68.6589C137.051 70.3487 138.408 71.7312 140.124 71.7312Z" fill="#605F5E"/>
<path d="M91.8625 36.3994H124.045C125.735 36.3994 127.118 35.0169 127.118 33.3271C127.118 31.6373 125.735 30.2548 124.045 30.2548H91.8625C90.1728 30.2548 88.7902 31.6373 88.7902 33.3271C88.7902 35.0169 90.1472 36.3994 91.8625 36.3994Z" fill="#605F5E"/>
<path d="M91.8625 47.0502H115.98C117.67 47.0502 119.053 45.6676 119.053 43.9778C119.053 42.2881 117.67 40.9055 115.98 40.9055H91.8625C90.1728 40.9055 88.7902 42.2881 88.7902 43.9778C88.7902 45.6676 90.1472 47.0502 91.8625 47.0502Z" fill="#605F5E"/>
<path d="M140.124 36.3994H148.163C149.853 36.3994 151.235 35.0169 151.235 33.3271C151.235 31.6373 149.853 30.2548 148.163 30.2548H140.124C138.434 30.2548 137.051 31.6373 137.051 33.3271C137.051 35.0169 138.408 36.3994 140.124 36.3994Z" fill="#605F5E"/>
<path d="M140.124 47.0502H148.163C149.853 47.0502 151.235 45.6676 151.235 43.9778C151.235 42.2881 149.853 40.9055 148.163 40.9055H140.124C138.434 40.9055 137.051 42.2881 137.051 43.9778C137.051 45.6676 138.408 47.0502 140.124 47.0502Z" fill="#605F5E"/>
<path d="M91.8625 86.0175H124.045C125.735 86.0175 127.118 84.6349 127.118 82.9451C127.118 81.2554 125.735 79.8728 124.045 79.8728H91.8625C90.1728 79.8728 88.7902 81.2554 88.7902 82.9451C88.7902 84.6349 90.1472 86.0175 91.8625 86.0175Z" fill="#605F5E"/>
<path d="M91.8625 96.6682H115.98C117.67 96.6682 119.053 95.2857 119.053 93.5959C119.053 91.9061 117.67 90.5236 115.98 90.5236H91.8625C90.1728 90.5236 88.7902 91.9061 88.7902 93.5959C88.7902 95.2857 90.1472 96.6682 91.8625 96.6682Z" fill="#605F5E"/>
<path d="M140.124 86.0175H148.163C149.853 86.0175 151.235 84.6349 151.235 82.9451C151.235 81.2554 149.853 79.8728 148.163 79.8728H140.124C138.434 79.8728 137.051 81.2554 137.051 82.9451C137.051 84.6349 138.408 86.0175 140.124 86.0175Z" fill="#605F5E"/>
<path d="M140.124 96.6682H148.163C149.853 96.6682 151.235 95.2857 151.235 93.5959C151.235 91.9061 149.853 90.5236 148.163 90.5236H140.124C138.434 90.5236 137.051 91.9061 137.051 93.5959C137.051 95.2857 138.408 96.6682 140.124 96.6682Z" fill="#605F5E"/>
</svg>
