<svg width="125" height="125" viewBox="0 0 125 125" fill="none" xmlns="http://www.w3.org/2000/svg">
<path d="M125 60.675C124.575 46.0367 119.022 32.0125 109.312 21.05C108.462 20.1125 107.6 19.1875 106.687 18.275C95.4332 6.98302 80.274 0.441496 64.3375 0C63.0875 0 61.8375 0 60.675 0C44.7288 0.442291 29.5607 6.9883 18.3 18.2875C17.4375 19.1625 16.5625 20.075 15.7125 21.025C5.99073 31.9873 0.429403 46.0167 0 60.6625C0 61.275 0 61.9125 0 62.5C0 63.0875 0 63.75 0 64.3375V65.225H12.025C12.5941 76.4356 16.894 87.1343 24.2412 95.6207C31.5884 104.107 41.5614 109.894 52.575 112.063C53.825 112.313 55.15 112.525 56.4625 112.688C57.575 112.813 58.675 112.912 59.775 112.975V125H60.6625H62.5H64.325C67.9128 124.893 71.4845 124.475 75 123.75C76.25 123.5 77.5 123.212 78.75 122.887C91.7249 119.39 103.229 111.807 111.559 101.262C119.888 90.7167 124.601 77.7697 125 64.3375C125 63.725 125 63.0875 125 62.5C125 61.9125 125 61.25 125 60.675ZM37.375 59.775H29.5C29.7685 56.4569 30.5398 53.1988 31.7875 50.1125L37.375 59.775ZM60.75 29.4125H61.625V23.9125H60.65C55.0055 24.1728 49.4885 25.6784 44.4943 28.3214C39.5001 30.9643 35.1523 34.6793 31.7625 39.2L28.275 33.175C32.3202 28.4738 37.29 24.6559 42.875 21.9592C48.4599 19.2624 54.5404 17.7445 60.7375 17.5C61.9 17.5 63.1 17.5 64.2625 17.5C70.4707 17.7472 76.5613 19.2724 82.1533 21.9803C87.7454 24.6881 92.7187 28.5204 96.7625 33.2375L81.3625 59.775H43.6375L34.7625 44.3875C37.6152 40.0272 41.4541 36.3996 45.9688 33.7981C50.4835 31.1966 55.5471 29.6942 60.75 29.4125V29.4125ZM65.8875 100.938C75.1688 100.087 83.8326 95.92 90.2908 89.2001C96.7489 82.4802 100.569 73.6577 101.05 64.35C101.05 63.7375 101.05 63.1 101.05 62.5C101.05 61.9 101.05 61.25 101.05 60.65V59.775H87.65L100.275 37.9125C104.736 44.7159 107.256 52.6078 107.563 60.7375C107.563 61.325 107.563 61.9125 107.563 62.5C107.563 63.0875 107.563 63.75 107.563 64.2625C107.122 74.5699 103.176 84.418 96.3771 92.178C89.5786 99.938 80.3349 105.145 70.175 106.938C68.925 107.163 67.675 107.325 66.425 107.425L65.2625 107.513V101H65.925L65.8875 100.938ZM95.525 65.225C94.8874 72.7093 91.7344 79.7571 86.5796 85.2206C81.4249 90.684 74.5721 94.2411 67.1375 95.3125L84.5125 65.225H95.525ZM17.5 59.775C17.9628 51.9807 20.458 44.4433 24.7375 37.9125L28.4875 44.3625C25.9247 49.1242 24.4116 54.3796 24.05 59.775H17.5ZM65.225 112.975C66.325 112.975 67.425 112.813 68.5375 112.688C69.85 112.525 71.1625 112.313 72.425 112.063C83.5881 109.865 93.6775 103.951 101.048 95.2838C108.419 86.6168 112.636 75.7086 113.013 64.3375C113.013 63.7292 113.013 63.1167 113.013 62.5C113.013 61.8833 113.013 61.2708 113.013 60.6625C112.651 50.3645 109.129 40.4273 102.925 32.2C102.15 31.1625 101.312 30.1375 100.425 29.15C95.8834 23.9971 90.3435 19.8193 84.1406 16.8693C77.9377 13.9194 71.2008 12.2586 64.3375 11.9875C63.0875 11.9875 61.8375 11.9875 60.6625 11.9875C53.7949 12.2552 47.0532 13.9144 40.8458 16.8645C34.6384 19.8146 29.0945 23.9942 24.55 29.15C23.6875 30.1375 22.85 31.1625 22.05 32.2C16.0424 40.1893 12.56 49.792 12.05 59.775H5.5125C6.05517 47.1788 10.8139 35.13 19.025 25.5625C19.8125 24.625 20.6625 23.7 21.525 22.8125L22.1625 22.1625C32.4132 11.8784 46.2112 5.90751 60.725 5.475C61.9 5.475 63.1 5.475 64.275 5.475C78.7888 5.90751 92.5868 11.8784 102.837 22.1625L103.475 22.8125C104.325 23.6875 105.175 24.6125 105.975 25.5625C114.395 35.38 119.179 47.7961 119.525 60.725C119.525 61.3125 119.525 61.9 119.525 62.5C119.525 63.1 119.525 63.75 119.525 64.275C119.131 76.6771 114.709 88.6136 106.928 98.2796C99.1478 107.946 88.4316 114.815 76.4 117.85C75.15 118.162 73.9 118.425 72.75 118.625C70.2715 119.076 67.7661 119.364 65.25 119.487L65.225 112.975ZM40.4875 65.225L58.75 96.9L59.7375 98.625V107.5L58.5875 107.413C57.3375 107.313 56.0875 107.15 54.8375 106.925C44.8411 105.164 35.7261 100.096 28.9552 92.5339C22.1843 84.9719 18.1501 75.3545 17.5 65.225H40.4875ZM78.2125 65.225L62.5 92.5L46.7875 65.225H78.2125Z" fill="#909090"/>
</svg>
