<svg width="933" height="558" viewBox="0 0 933 558" fill="none" xmlns="http://www.w3.org/2000/svg">
<g clip-path="url(#clip0_541_1597)">
<path d="M645.923 163.461C644.847 125.058 628.698 88.2953 600.708 59.4106C598.197 56.7847 595.685 54.4871 593.173 52.1894C560.877 22.6483 517.456 5.2518 471.524 4.26709C467.935 4.26709 464.347 4.26709 461.117 4.26709C415.185 5.58003 371.765 22.6483 339.468 52.1894C336.957 54.4871 334.445 56.7847 331.933 59.4106C303.943 88.2953 288.153 125.058 286.718 163.461C286.718 165.102 286.718 166.744 286.718 168.385C286.718 170.026 286.718 171.667 286.718 173.308V175.606H321.167C324.397 236.329 372.482 286.878 437.433 298.694C441.022 299.351 444.969 300.007 448.558 300.335C451.787 300.664 455.017 300.992 458.247 300.992V332.502H460.758H466.141H471.524C481.93 332.174 491.978 331.189 502.385 329.22C505.973 328.564 509.562 327.907 513.15 326.922C589.584 308.213 643.411 245.52 645.923 173.308C645.923 171.667 645.923 170.026 645.923 168.385C645.923 166.744 645.923 165.102 645.923 163.461ZM394.372 161.164H371.765C372.482 152.301 374.635 143.767 378.224 135.889L394.372 161.164ZM461.476 81.4024H463.988V66.96H461.117C428.462 68.273 397.96 83.0436 378.224 107.005L368.176 91.2494C391.501 66.3036 425.592 51.2047 461.476 49.8918C464.706 49.8918 468.294 49.8918 471.524 49.8918C507.408 51.2047 541.499 66.3036 564.824 91.2494L520.327 161.164H411.955L386.477 120.791C403.343 97.4859 431.333 83.0436 461.476 81.4024ZM476.189 269.153C531.092 264.558 574.154 223.528 577.025 172.98C577.025 171.339 577.025 169.698 577.025 168.057C577.025 166.415 577.025 164.774 577.025 163.133V160.835H538.628L574.872 103.394C587.79 121.119 594.967 142.126 595.685 163.461C595.685 165.102 595.685 166.415 595.685 168.057C595.685 169.698 595.685 171.011 595.685 172.652C593.173 228.452 548.317 275.061 488.39 284.58C484.801 285.236 481.213 285.565 477.624 285.893L474.395 286.221V269.153H476.189ZM561.235 175.278C557.288 215.651 523.557 248.474 479.777 254.382L529.657 175.278H561.235ZM337.315 161.164C338.751 140.813 345.928 120.791 358.128 103.722L368.894 120.791C361.358 133.264 357.052 147.049 355.975 161.164H337.315V161.164ZM474.395 300.664C477.624 300.664 480.854 300.335 483.725 300.007C487.313 299.679 491.26 299.022 494.849 298.366C560.877 286.549 608.962 234.688 611.474 172.98C611.474 171.339 611.474 169.698 611.474 168.057C611.474 166.415 611.474 164.774 611.474 163.133C610.397 135.889 600.35 109.959 582.407 88.2953C580.254 85.6694 577.742 83.0436 575.23 80.4177C549.035 53.1742 511.356 36.7624 471.524 35.4494C467.935 35.4494 464.347 35.4494 461.117 35.4494C421.285 36.7624 383.965 53.1742 357.411 80.7459C354.899 83.3718 352.387 85.9977 350.234 88.6236C333.009 109.631 322.962 134.905 321.526 161.164H302.866C304.302 128.012 317.938 96.5012 341.622 71.2271C343.775 68.6012 346.287 66.3036 348.798 64.0059L350.593 62.3647C380.018 35.4494 419.491 19.6941 461.117 18.7094C464.347 18.7094 467.935 18.7094 471.165 18.7094C513.15 19.6941 552.982 35.4494 582.407 62.3647L584.202 64.0059C586.713 66.3036 589.225 68.6012 591.378 71.2271C615.421 97.1577 629.416 129.653 630.134 163.461C630.134 165.102 630.134 166.415 630.134 168.057C630.134 169.698 630.134 171.339 630.134 172.652C627.981 239.612 577.383 297.053 506.332 313.465C502.744 314.121 499.155 315.106 495.925 315.434C488.748 316.747 481.572 317.404 474.395 317.732V300.664V300.664ZM403.343 175.606L455.735 258.649L458.605 263.245V286.549L455.376 286.221C451.787 285.893 448.199 285.565 444.61 284.908C385.401 275.389 341.263 230.093 337.315 175.606H403.343ZM511.715 175.606L466.5 246.833L421.285 175.278H511.715V175.606Z" fill="#909090"/>
<path d="M244.015 512.704H255.498C265.546 512.704 269.135 515.986 269.135 521.894V523.535C269.135 529.444 266.264 531.085 263.393 531.741C267.699 532.398 270.57 536.008 270.211 539.947V542.901C270.211 549.794 266.264 553.405 255.857 553.405H244.015V512.704ZM254.781 529.772C260.163 529.772 261.599 528.459 261.599 524.192V522.551C261.599 518.94 259.805 517.627 255.14 517.627H251.91V530.1H254.781V529.772ZM251.91 549.138H255.498C261.24 549.138 262.675 547.168 262.675 542.901V540.275C262.675 536.008 260.881 534.367 255.14 534.367H252.269L251.91 549.138Z" fill="#909090"/>
<path d="M288.153 553.733V538.962C288.153 538.634 288.153 537.978 287.795 537.65L276.67 512.704H285.642C288.153 519.597 291.383 527.802 292.46 532.07C293.536 527.474 296.766 519.597 299.278 512.704H307.89L296.407 537.978C296.407 538.306 296.407 538.962 296.407 539.291V553.733H288.153Z" fill="#909090"/>
<path d="M333.009 512.704H344.492C354.54 512.704 358.128 515.986 358.128 521.894V523.535C358.128 529.444 355.258 531.085 352.387 531.741C356.693 532.398 359.564 536.008 359.205 539.947V542.901C359.205 549.794 355.258 553.405 344.851 553.405H333.009V512.704V512.704ZM343.775 529.772C349.157 529.772 350.593 528.459 350.593 524.192V522.551C350.593 518.94 348.798 517.627 344.133 517.627H340.904V530.1H343.775V529.772ZM340.904 549.138H344.492C350.234 549.138 351.669 547.168 351.669 542.901V540.275C351.669 536.008 349.875 534.367 343.775 534.367H340.904V549.138Z" fill="#909090"/>
<path d="M378.583 541.917L376.071 553.733H367.817L377.506 512.704H388.989L399.037 553.733H390.783L388.272 541.917H378.583ZM387.195 536.993C385.401 529.115 384.324 522.551 383.607 517.955H383.248C382.889 521.238 381.095 530.1 379.659 536.993H387.195Z" fill="#909090"/>
<path d="M416.979 535.024V553.733H409.085V512.704H420.927C429.898 512.704 434.922 515.33 434.922 522.222V523.864C435.639 527.802 432.768 531.413 428.821 532.398C432.41 533.382 434.204 535.352 434.204 540.932C434.204 545.199 434.204 549.466 434.922 553.405H427.027C426.309 549.466 426.309 545.199 426.309 541.26C426.309 536.008 425.233 534.695 419.85 534.695L416.979 535.024ZM416.979 530.428H419.85C425.233 530.428 426.668 528.787 426.668 524.192V522.551C426.668 519.268 425.592 516.971 419.85 516.971H416.979V530.428Z" fill="#909090"/>
<path d="M452.864 517.955H443.175V512.704H470.447V517.955H460.758V553.733H452.864V517.955Z" fill="#909090"/>
<path d="M501.308 534.695H488.031V548.81H503.102V553.733H479.777V512.704H502.026V517.955H488.031V529.772H501.308V534.695Z" fill="#909090"/>
<path d="M512.791 553.733V512.704H522.121C524.992 519.268 532.528 539.947 533.245 542.573C532.887 537.321 532.887 531.413 532.887 524.848V512.704H540.422V553.733H531.451C528.939 547.497 520.686 525.177 519.968 522.879C520.327 527.802 520.327 533.711 520.327 541.26V554.061L512.791 553.733Z" fill="#909090"/>
<path d="M554.058 512.704H566.259C579.178 512.704 581.69 517.627 581.69 524.848V540.932C581.69 547.168 580.254 554.061 566.259 554.061H554.417V512.704H554.058ZM561.953 549.138H565.183C571.642 549.138 573.077 546.512 573.077 541.588V524.192C573.077 519.925 572.001 517.299 565.183 517.299H561.953V549.138Z" fill="#909090"/>
<path d="M614.703 534.695H601.426V548.81H616.498V553.733H593.173V512.704H615.421V517.955H601.426V529.772H614.703V534.695V534.695Z" fill="#909090"/>
<path d="M634.44 535.024V553.733H626.545V512.704H638.387C647.358 512.704 652.382 515.33 652.382 522.222V523.864C653.1 527.802 650.229 531.413 646.282 532.398C649.87 533.382 652.023 535.352 652.023 540.932C652.023 545.199 652.023 549.466 652.741 553.405H644.846C644.129 549.466 644.129 545.199 644.129 541.26C644.129 536.008 643.052 534.695 637.311 534.695L634.44 535.024ZM634.44 530.428H637.311C642.693 530.428 644.129 528.787 644.129 524.192V522.551C644.129 519.268 643.052 516.971 637.311 516.971H634.44V530.428Z" fill="#909090"/>
<path d="M669.966 541.26V543.558C669.966 546.84 671.401 548.481 675.348 548.481C679.296 548.481 680.372 546.512 680.372 543.23C680.372 538.962 678.937 537.321 672.837 534.039C666.736 530.757 663.148 528.787 663.148 522.879C663.148 517.627 665.301 512.704 675.348 512.704C685.396 512.704 687.19 517.299 687.19 521.894V523.864H679.296V521.894C679.296 518.94 678.578 516.971 674.99 516.971C671.401 516.971 670.683 518.94 670.683 521.894C670.683 524.848 671.401 526.489 676.784 529.115C685.396 533.382 687.908 535.68 687.908 542.245C687.908 547.825 685.396 553.733 674.99 553.733C664.583 553.733 662.071 548.481 662.071 543.558V541.26H669.966Z" fill="#909090"/>
<path d="M929.411 530.1H749.988V536.665H929.411V530.1Z" fill="#909090"/>
<path d="M183.012 530.1H3.58846V536.665H183.012V530.1Z" fill="#909090"/>
<path d="M79.305 436.881L86.8408 451.324C77.1519 455.262 66.7454 457.232 56.3388 456.904C26.5546 456.575 3.58847 441.148 4.30616 421.782C5.02385 402.416 28.3488 387.974 57.7742 388.302C68.1808 388.302 78.5873 390.6 88.2762 394.867L80.3815 408.981C73.2046 406.027 65.6688 404.386 57.7742 404.058C40.9085 403.729 22.2485 410.951 21.8896 421.782C21.5308 432.614 40.1908 440.492 57.0565 440.82C64.5923 441.476 72.1281 440.164 79.305 436.881Z" fill="#909090"/>
<path d="M169.734 456.904C155.739 456.904 141.027 441.148 132.414 441.148H121.29V456.904H103.707V388.302H136.362C162.557 388.302 176.552 401.104 176.552 414.889C176.552 424.736 170.452 433.271 160.763 437.209C162.916 440.492 174.399 443.118 177.988 439.507C187.677 443.118 183.729 456.904 169.734 456.904ZM158.969 414.889C158.969 407.668 151.074 404.386 136.362 404.386H121.29V425.393H136.362C151.074 425.393 158.969 421.782 158.969 414.889Z" fill="#909090"/>
<path d="M272.723 457.232L265.905 444.102H225.355L218.537 457.232H199.16L235.403 388.631H256.216L292.101 457.232H272.723ZM245.81 405.371L233.609 428.019H257.652L245.81 405.371Z" fill="#909090"/>
<path d="M325.473 414.561H356.693V430.645H325.473V457.232H307.89V388.631H371.765V404.714H325.473V414.561Z" fill="#909090"/>
<path d="M461.117 404.386H433.127V457.232H415.544V404.386H387.195V388.302H461.117V404.386Z" fill="#909090"/>
<path d="M553.341 435.896C553.341 447.713 537.552 456.904 516.738 456.904C489.466 456.904 474.036 447.713 473.677 447.385L483.725 434.255C483.725 434.255 495.567 441.148 517.097 441.148C528.58 441.148 536.116 438.522 536.116 435.568C536.116 432.614 521.045 430.316 514.944 429.66C499.514 427.362 480.495 424.408 480.495 409.309C480.495 397.165 496.284 388.302 517.097 388.302C537.91 388.302 548.317 393.554 549.393 394.211L540.422 407.668C540.422 407.668 532.887 403.729 517.097 403.729C505.973 403.729 498.078 406.684 498.078 408.981C498.078 411.279 511.715 412.92 517.456 413.576C532.528 416.202 553.341 419.485 553.341 435.896Z" fill="#909090"/>
<path d="M645.205 456.904H627.622V430.316H586.713V456.904H569.13V388.302H586.713V414.561H627.622V388.302H645.205V456.904Z" fill="#909090"/>
<path d="M734.558 456.904L727.74 443.774H687.19L680.372 456.904H660.995L697.238 388.631H718.41L754.295 456.904H734.558ZM707.645 405.371L695.444 428.019H719.128L707.645 405.371Z" fill="#909090"/>
<path d="M825.346 456.904L796.638 429.332L787.308 437.209V457.232H769.725V388.631H787.308V415.874L819.963 388.631H845.8L809.557 418.828L849.748 457.232H825.346V456.904Z" fill="#909090"/>
<path d="M882.762 414.889H913.981V430.645H882.762V441.148H928.694V456.904H865.178V388.302H929.053V404.386H882.762V414.889Z" fill="#909090"/>
</g>
<defs>
<clipPath id="clip0_541_1597">
<rect width="933" height="558" fill="white"/>
</clipPath>
</defs>
</svg>
