<svg width="120" height="120" viewBox="0 0 120 120" fill="none" xmlns="http://www.w3.org/2000/svg">
<path d="M113.952 120H6.04843C5.06749 120 4.27244 119.205 4.27244 118.224V97.6137C4.27244 89.6401 9.05577 82.5746 16.4587 79.6134L41.9891 69.4015C42.4361 69.2227 42.9369 69.2328 43.3756 69.4299C43.8148 69.627 44.1552 69.9935 44.3192 70.4464L51.834 91.2231L54.3068 84.1144L52.1211 78.7722C51.8968 78.2246 51.9607 77.6006 52.2898 77.1099C52.6202 76.6185 53.1725 76.3237 53.7645 76.3237H66.2355C66.8275 76.3237 67.3804 76.6185 67.7102 77.1099C68.0399 77.6012 68.1032 78.2246 67.8789 78.7722L65.6938 84.115L68.1666 91.2237L75.6814 70.447C75.8448 69.9941 76.1858 69.6276 76.625 69.4305C77.0637 69.2334 77.5645 69.2233 78.0115 69.4021L103.541 79.614C110.945 82.5752 115.728 89.6413 115.728 97.6143V118.225C115.728 119.205 114.933 120 113.952 120ZM7.82442 116.448H112.176V97.6137C112.176 91.1011 108.269 85.3298 102.222 82.9114L78.3975 73.3815L69.804 97.1389C69.5483 97.8457 68.8746 98.3057 68.1228 98.3104C67.3703 98.3057 66.7038 97.828 66.4563 97.1176L62.1193 84.6466C61.9773 84.2381 61.9885 83.7911 62.1531 83.391L63.591 79.8751H56.4095L57.8481 83.3904C58.0121 83.7912 58.0239 84.2375 57.8824 84.6466L53.5449 97.1176C53.2974 97.828 52.6302 98.3057 51.8784 98.3104C51.1047 98.3081 50.4529 97.8457 50.1971 97.1389L41.6037 73.3815L17.7776 82.9114C11.731 85.3298 7.82442 91.1005 7.82442 97.6137V116.448ZM100.319 112.231H80.4416C79.4607 112.231 78.6656 111.436 78.6656 110.455V98.2187C78.6656 97.2377 79.4607 96.4427 80.4416 96.4427H100.319C101.3 96.4427 102.095 97.2377 102.095 98.2187V110.455C102.095 111.436 101.3 112.231 100.319 112.231ZM82.2176 108.679H98.5431V99.9947H82.2176V108.679ZM60 68.9836C57.2508 68.9836 54.5702 68.4732 52.0323 67.4663C50.071 66.6878 48.4502 65.7086 47.2158 64.556C43.8065 61.374 40.2623 54.5649 38.9557 51.9139C36.7369 51.8062 32.1862 50.6234 30.2161 43.0914C29.2381 39.3512 29.4613 36.345 30.8791 34.157C31.6529 32.9624 32.6267 32.2591 33.4324 31.8506C33.4182 30.9176 33.4395 29.5578 33.5887 27.9286C32.3402 26.0218 29.6093 20.3357 34.2979 12.0134C34.2991 12.0116 34.2997 12.0104 34.3009 12.0086C34.3009 12.0086 34.3062 11.9992 34.3074 11.9968C34.3074 11.9968 34.3074 11.9968 34.308 11.9968C34.3085 11.9956 34.3316 11.9548 34.3334 11.9512C34.3376 11.9447 34.3417 11.9376 34.3453 11.9311C34.35 11.9234 34.3541 11.9157 34.3583 11.908C34.3595 11.9062 34.3606 11.9045 34.3618 11.9027C37.4307 6.53564 41.4013 5.40493 44.1967 5.40315C44.1973 5.40315 44.1978 5.40315 44.1984 5.40315C44.199 5.40315 44.199 5.40315 44.199 5.40315H44.1996C44.2008 5.40315 44.2026 5.40315 44.2026 5.40315C44.2026 5.40315 44.2026 5.40315 44.2032 5.40315H44.2038C44.8893 5.40315 45.5073 5.47301 46.0313 5.56832C47.3052 3.32939 50.8785 0 60.8489 0C60.8495 0 60.8483 0 60.8495 0H60.8501C60.856 0 60.8619 0 60.8679 0L61.319 0.00236799C61.3231 0.00236799 61.3273 0.00236799 61.3314 0.00236799H61.3344C61.3403 0.00236799 61.3456 0.00236799 61.3503 0.00236799C67.9316 0.0751835 73.179 2.48757 76.4474 4.52285C82.6563 7.56038 86.4528 13.9066 87.384 17.2005C87.7913 18.6431 87.9955 20.3203 87.9896 22.1845C87.9896 22.1851 87.9896 22.1857 87.9896 22.1862C87.9896 22.1862 87.9896 22.1868 87.9896 22.1874C87.9896 22.1892 87.9896 22.1916 87.9896 22.1939C87.9896 22.1945 87.9896 22.1957 87.9896 22.1963C87.9896 22.1975 87.9896 22.1993 87.9896 22.201C87.9896 22.201 87.9896 22.201 87.9896 22.2016C87.9896 22.204 87.9896 22.207 87.9896 22.2099C87.9896 22.2123 87.9896 22.2153 87.9896 22.2176C87.9896 22.2206 87.9896 22.2241 87.9896 22.2271C87.9695 26.4942 86.8772 30.5867 86.5694 31.657C86.5688 31.7227 86.5682 31.7866 86.567 31.8482C87.3727 32.2567 88.3472 32.96 89.1203 34.1546C90.5387 36.3432 90.7613 39.3488 89.7833 43.089C87.8138 50.621 83.2631 51.8044 81.0443 51.9122C79.7377 54.5631 76.1935 61.3722 72.7836 64.5548C71.5487 65.7074 69.9284 66.6866 67.9671 67.4645C65.4292 68.4732 62.7486 68.9836 60 68.9836ZM40.0231 48.3193C40.7092 48.3193 41.364 48.7083 41.6588 49.3411C41.7008 49.4323 45.9507 58.5165 49.6395 61.9595C50.5488 62.8084 51.7943 63.5502 53.3418 64.1647C55.4612 65.0053 57.7007 65.4322 59.9994 65.4322C62.2981 65.4322 64.5376 65.0059 66.657 64.1647C68.2039 63.5508 69.45 62.809 70.3599 61.9601C74.0487 58.5165 78.2986 49.4329 78.3406 49.3417C78.6875 48.597 79.5021 48.1879 80.3049 48.3501C80.3043 48.3501 80.3043 48.3501 80.3043 48.3501C80.309 48.3501 80.4541 48.3714 80.6808 48.3714C82.1933 48.3714 84.9402 47.5687 86.3462 42.1928C87.0406 39.5377 86.9808 37.4461 86.1745 36.1449C85.4937 35.0468 84.4589 34.8206 84.4145 34.8117C83.5017 34.6596 82.8913 33.8379 82.9695 32.9156C82.9695 32.912 83.0138 32.365 83.018 31.4551C82.986 30.9584 82.7362 29.4589 81.9844 28.745C81.0751 28.0186 75.5423 26.9512 70.1918 25.9188C67.9428 25.4848 65.3943 24.9935 62.7078 24.4435C62.7048 24.4429 62.7013 24.4423 62.6977 24.4417C60.9419 24.1227 59.4275 23.6905 58.1932 23.1583C53.6804 21.4918 50.5754 19.1019 48.6881 17.2786C48.0085 19.1629 46.9175 21.5007 45.2806 23.2684C42.3769 26.4048 38.864 28.0654 37.0821 28.761C36.8926 31.2302 37.0258 32.8978 37.0276 32.9168C37.1045 33.8379 36.4616 34.6667 35.55 34.8183C35.5381 34.8218 34.5033 35.048 33.8225 36.1461C33.0162 37.4473 32.9564 39.5388 33.6508 42.1939C35.0574 47.5705 37.8049 48.3726 39.3168 48.3726C39.5655 48.3726 39.7164 48.3471 39.7176 48.3471C39.8206 48.3276 39.9225 48.3193 40.0231 48.3193ZM47.8854 11.8968C48.4744 11.8968 49.035 12.1904 49.3677 12.6948C49.3944 12.7344 52.5118 17.2845 59.4678 19.8408C59.5015 19.8532 59.5335 19.8656 59.5661 19.8798C60.5648 20.3155 61.8435 20.6761 63.3661 20.9513C63.3886 20.9555 63.4105 20.9596 63.433 20.9644C66.0881 21.5078 68.626 21.998 70.8661 22.4301C78.9415 23.9883 82.5586 24.7241 84.1487 25.9288C84.3133 24.7626 84.4323 23.4869 84.4382 22.2117H84.4388H84.4382H84.4388H84.4382C84.4382 22.2093 84.4382 22.2064 84.4382 22.2034C84.4382 22.2016 84.4382 22.1993 84.4382 22.1975C84.4382 22.1975 84.4382 22.1975 84.4382 22.1969C84.4382 22.1951 84.4382 22.1933 84.4382 22.1916C84.4382 22.1916 84.4382 22.191 84.4382 22.1904C84.4382 22.1904 84.4382 22.1904 84.4382 22.1898C84.4382 22.1886 84.4382 22.1874 84.4382 22.1862C84.4382 22.1857 84.4382 22.1851 84.4382 22.1839C84.4382 22.1839 84.4382 22.1833 84.4382 22.1827C84.4382 22.1809 84.4382 22.1791 84.4382 22.1768C84.4382 22.175 84.4382 22.1732 84.4382 22.1714C84.4423 20.7418 84.3038 19.4737 84.0285 18.3981C84.0084 18.3205 83.9883 18.2441 83.967 18.169C83.9238 18.0156 83.8723 17.8552 83.8136 17.6883C82.7913 14.7851 79.4613 9.95146 74.8579 7.70128C74.7851 7.66813 74.7147 7.63024 74.6466 7.58762C71.7724 5.7844 67.1247 3.62065 61.3125 3.55671C61.3077 3.55671 61.3024 3.55671 61.2982 3.55671L60.8495 3.55198C60.5659 3.55198 60.2895 3.55494 60.0195 3.56027C60.016 3.56027 60.0136 3.56027 60.0101 3.56027C50.0349 3.7722 48.9066 7.7587 48.8539 7.97478C48.8462 8.01977 48.8379 8.06476 48.8273 8.10976C48.7657 8.37201 48.6479 8.6094 48.4886 8.81009C48.3667 8.96342 48.2222 9.09306 48.0612 9.19666C47.8061 9.36124 47.5083 9.46188 47.1928 9.47845C47.0039 9.48911 46.8151 9.46898 46.628 9.41748C46.541 9.3932 46.4563 9.3636 46.3752 9.32749C46.2515 9.27836 45.3883 8.95454 44.2026 8.95454H44.202C44.2008 8.95454 44.2008 8.95454 44.1996 8.95454C41.4918 8.95572 39.2115 10.5541 37.4219 13.7053C37.4207 13.7071 37.4195 13.7089 37.4183 13.7106C37.4183 13.7112 37.4177 13.7112 37.4177 13.7118C37.4153 13.716 37.413 13.7195 37.4106 13.7237C37.4071 13.7302 37.4035 13.7361 37.4 13.7426C37.3988 13.745 37.3976 13.7467 37.3964 13.7491C37.3952 13.7503 37.3946 13.7515 37.394 13.7527C34.128 19.5471 35.2824 23.5401 36.1639 25.2972C37.709 24.6501 40.4422 23.2655 42.6746 20.8543C44.7496 18.6135 45.8803 14.6649 46.1408 13.3323C46.2793 12.6243 46.8322 12.0708 47.5397 11.9311C47.6557 11.9074 47.7711 11.8968 47.8854 11.8968Z" fill="#605F5E"/>
</svg>
