<svg width="240" height="180" viewBox="0 0 240 180" fill="none" xmlns="http://www.w3.org/2000/svg">
<path d="M177.952 137H70.0484C69.0675 137 68.2724 136.205 68.2724 135.224V114.614C68.2724 106.64 73.0558 99.5746 80.4587 96.6134L105.989 86.4015C106.436 86.2227 106.937 86.2328 107.376 86.4299C107.815 86.627 108.155 86.9935 108.319 87.4464L115.834 108.223L118.307 101.114L116.121 95.7722C115.897 95.2246 115.961 94.6006 116.29 94.1099C116.62 93.6185 117.173 93.3237 117.765 93.3237H130.235C130.827 93.3237 131.38 93.6185 131.71 94.1099C132.04 94.6012 132.103 95.2246 131.879 95.7722L129.694 101.115L132.167 108.224L139.681 87.447C139.845 86.9941 140.186 86.6276 140.625 86.4305C141.064 86.2334 141.565 86.2233 142.011 86.4021L167.541 96.614C174.945 99.5752 179.728 106.641 179.728 114.614V135.225C179.728 136.205 178.933 137 177.952 137ZM71.8244 133.448H176.176V114.614C176.176 108.101 172.269 102.33 166.222 99.9114L142.397 90.3815L133.804 114.139C133.548 114.846 132.875 115.306 132.123 115.31C131.37 115.306 130.704 114.828 130.456 114.118L126.119 101.647C125.977 101.238 125.989 100.791 126.153 100.391L127.591 96.8751H120.41L121.848 100.39C122.012 100.791 122.024 101.238 121.882 101.647L117.545 114.118C117.297 114.828 116.63 115.306 115.878 115.31C115.105 115.308 114.453 114.846 114.197 114.139L105.604 90.3815L81.7776 99.9114C75.731 102.33 71.8244 108.101 71.8244 114.614V133.448ZM164.319 129.231H144.442C143.461 129.231 142.666 128.436 142.666 127.455V115.219C142.666 114.238 143.461 113.443 144.442 113.443H164.319C165.3 113.443 166.095 114.238 166.095 115.219V127.455C166.095 128.436 165.3 129.231 164.319 129.231ZM146.218 125.679H162.543V116.995H146.218V125.679ZM124 85.9836C121.251 85.9836 118.57 85.4732 116.032 84.4663C114.071 83.6878 112.45 82.7086 111.216 81.556C107.807 78.374 104.262 71.5649 102.956 68.9139C100.737 68.8062 96.1862 67.6234 94.2161 60.0914C93.2381 56.3512 93.4613 53.345 94.8791 51.157C95.6529 49.9624 96.6267 49.2591 97.4324 48.8506C97.4182 47.9176 97.4395 46.5578 97.5887 44.9286C96.3402 43.0218 93.6093 37.3357 98.2979 29.0134C98.2991 29.0116 98.2997 29.0104 98.3009 29.0086C98.3009 29.0086 98.3062 28.9992 98.3074 28.9968C98.3074 28.9968 98.3074 28.9968 98.308 28.9968C98.3085 28.9956 98.3316 28.9548 98.3334 28.9512C98.3376 28.9447 98.3417 28.9376 98.3453 28.9311C98.35 28.9234 98.3541 28.9157 98.3583 28.908C98.3595 28.9062 98.3606 28.9045 98.3618 28.9027C101.431 23.5356 105.401 22.4049 108.197 22.4031C108.197 22.4031 108.198 22.4031 108.198 22.4031C108.199 22.4031 108.199 22.4031 108.199 22.4031H108.2C108.201 22.4031 108.203 22.4031 108.203 22.4031C108.203 22.4031 108.203 22.4031 108.203 22.4031H108.204C108.889 22.4031 109.507 22.473 110.031 22.5683C111.305 20.3294 114.879 17 124.849 17C124.85 17 124.848 17 124.85 17H124.85C124.856 17 124.862 17 124.868 17L125.319 17.0024C125.323 17.0024 125.327 17.0024 125.331 17.0024H125.334C125.34 17.0024 125.346 17.0024 125.35 17.0024C131.932 17.0752 137.179 19.4876 140.447 21.5229C146.656 24.5604 150.453 30.9066 151.384 34.2005C151.791 35.6431 151.996 37.3203 151.99 39.1845C151.99 39.1851 151.99 39.1857 151.99 39.1862C151.99 39.1862 151.99 39.1868 151.99 39.1874C151.99 39.1892 151.99 39.1916 151.99 39.1939C151.99 39.1945 151.99 39.1957 151.99 39.1963C151.99 39.1975 151.99 39.1993 151.99 39.201C151.99 39.201 151.99 39.201 151.99 39.2016C151.99 39.204 151.99 39.207 151.99 39.2099C151.99 39.2123 151.99 39.2153 151.99 39.2176C151.99 39.2206 151.99 39.2241 151.99 39.2271C151.969 43.4942 150.877 47.5867 150.569 48.657C150.569 48.7227 150.568 48.7866 150.567 48.8482C151.373 49.2567 152.347 49.96 153.12 51.1546C154.539 53.3432 154.761 56.3488 153.783 60.089C151.814 67.621 147.263 68.8044 145.044 68.9122C143.738 71.5631 140.193 78.3722 136.784 81.5548C135.549 82.7074 133.928 83.6866 131.967 84.4645C129.429 85.4732 126.749 85.9836 124 85.9836ZM104.023 65.3193C104.709 65.3193 105.364 65.7083 105.659 66.3411C105.701 66.4323 109.951 75.5165 113.639 78.9595C114.549 79.8084 115.794 80.5502 117.342 81.1647C119.461 82.0053 121.701 82.4322 123.999 82.4322C126.298 82.4322 128.538 82.0059 130.657 81.1647C132.204 80.5508 133.45 79.809 134.36 78.9601C138.049 75.5165 142.299 66.4329 142.341 66.3417C142.688 65.597 143.502 65.1879 144.305 65.3501C144.304 65.3501 144.304 65.3501 144.304 65.3501C144.309 65.3501 144.454 65.3714 144.681 65.3714C146.193 65.3714 148.94 64.5687 150.346 59.1928C151.041 56.5377 150.981 54.4461 150.175 53.1449C149.494 52.0468 148.459 51.8206 148.415 51.8117C147.502 51.6596 146.891 50.8379 146.969 49.9156C146.969 49.912 147.014 49.365 147.018 48.4551C146.986 47.9584 146.736 46.4589 145.984 45.745C145.075 45.0186 139.542 43.9512 134.192 42.9188C131.943 42.4848 129.394 41.9935 126.708 41.4435C126.705 41.4429 126.701 41.4423 126.698 41.4417C124.942 41.1227 123.428 40.6905 122.193 40.1583C117.68 38.4918 114.575 36.1019 112.688 34.2786C112.009 36.1629 110.917 38.5007 109.281 40.2684C106.377 43.4048 102.864 45.0654 101.082 45.761C100.893 48.2302 101.026 49.8978 101.028 49.9168C101.105 50.8379 100.462 51.6667 99.55 51.8183C99.5381 51.8218 98.5033 52.048 97.8225 53.1461C97.0162 54.4473 96.9564 56.5388 97.6508 59.1939C99.0574 64.5705 101.805 65.3726 103.317 65.3726C103.565 65.3726 103.716 65.3471 103.718 65.3471C103.821 65.3276 103.922 65.3193 104.023 65.3193ZM111.885 28.8968C112.474 28.8968 113.035 29.1904 113.368 29.6948C113.394 29.7344 116.512 34.2845 123.468 36.8408C123.502 36.8532 123.534 36.8656 123.566 36.8798C124.565 37.3155 125.843 37.6761 127.366 37.9513C127.389 37.9555 127.41 37.9596 127.433 37.9644C130.088 38.5078 132.626 38.998 134.866 39.4301C142.942 40.9883 146.559 41.7241 148.149 42.9288C148.313 41.7626 148.432 40.4869 148.438 39.2117H148.439H148.438H148.439H148.438C148.438 39.2093 148.438 39.2064 148.438 39.2034C148.438 39.2016 148.438 39.1993 148.438 39.1975C148.438 39.1975 148.438 39.1975 148.438 39.1969C148.438 39.1951 148.438 39.1933 148.438 39.1916C148.438 39.1916 148.438 39.191 148.438 39.1904C148.438 39.1904 148.438 39.1904 148.438 39.1898C148.438 39.1886 148.438 39.1874 148.438 39.1862C148.438 39.1857 148.438 39.1851 148.438 39.1839C148.438 39.1839 148.438 39.1833 148.438 39.1827C148.438 39.1809 148.438 39.1791 148.438 39.1768C148.438 39.175 148.438 39.1732 148.438 39.1714C148.442 37.7418 148.304 36.4737 148.029 35.3981C148.008 35.3205 147.988 35.2441 147.967 35.169C147.924 35.0156 147.872 34.8552 147.814 34.6883C146.791 31.7851 143.461 26.9515 138.858 24.7013C138.785 24.6681 138.715 24.6302 138.647 24.5876C135.772 22.7844 131.125 20.6206 125.312 20.5567C125.308 20.5567 125.302 20.5567 125.298 20.5567L124.85 20.552C124.566 20.552 124.289 20.5549 124.02 20.5603C124.016 20.5603 124.014 20.5603 124.01 20.5603C114.035 20.7722 112.907 24.7587 112.854 24.9748C112.846 25.0198 112.838 25.0648 112.827 25.1098C112.766 25.372 112.648 25.6094 112.489 25.8101C112.367 25.9634 112.222 26.0931 112.061 26.1967C111.806 26.3612 111.508 26.4619 111.193 26.4785C111.004 26.4891 110.815 26.469 110.628 26.4175C110.541 26.3932 110.456 26.3636 110.375 26.3275C110.251 26.2784 109.388 25.9545 108.203 25.9545H108.202C108.201 25.9545 108.201 25.9545 108.2 25.9545C105.492 25.9557 103.211 27.5541 101.422 30.7053C101.421 30.7071 101.419 30.7089 101.418 30.7106C101.418 30.7112 101.418 30.7112 101.418 30.7118C101.415 30.716 101.413 30.7195 101.411 30.7237C101.407 30.7302 101.404 30.7361 101.4 30.7426C101.399 30.745 101.398 30.7467 101.396 30.7491C101.395 30.7503 101.395 30.7515 101.394 30.7527C98.128 36.5471 99.2824 40.5401 100.164 42.2972C101.709 41.6501 104.442 40.2655 106.675 37.8543C108.75 35.6135 109.88 31.6649 110.141 30.3323C110.279 29.6243 110.832 29.0708 111.54 28.9311C111.656 28.9074 111.771 28.8968 111.885 28.8968Z" fill="#605F5E"/>
<path d="M94.825 161H93.113L92.857 155.624C92.825 154.92 92.809 154.243 92.809 153.592C92.809 152.749 92.825 152.083 92.857 151.592L91.225 159.048H89.609L87.865 151.592C87.9077 152.136 87.929 152.973 87.929 154.104C87.929 154.787 87.9237 155.299 87.913 155.64L87.689 161H86.025L86.649 149.96H88.873L90.457 157.352L91.961 149.96H94.201L94.825 161ZM103.107 158.936C103.107 159.256 103.155 159.496 103.251 159.656C103.347 159.805 103.512 159.917 103.747 159.992L103.331 161.208C102.445 161.101 101.864 160.712 101.587 160.04C101.277 160.424 100.888 160.717 100.419 160.92C99.9601 161.112 99.4534 161.208 98.8988 161.208C98.0454 161.208 97.3681 160.968 96.8668 160.488C96.3654 160.008 96.1148 159.373 96.1148 158.584C96.1148 157.699 96.4614 157.016 97.1548 156.536C97.8588 156.056 98.8508 155.816 100.131 155.816H101.331V155.272C101.331 154.739 101.171 154.349 100.851 154.104C100.531 153.859 100.067 153.736 99.4588 153.736C99.1601 153.736 98.8134 153.773 98.4188 153.848C98.0241 153.923 97.6241 154.029 97.2188 154.168L96.7708 152.904C97.7841 152.52 98.7708 152.328 99.7308 152.328C100.851 152.328 101.693 152.573 102.259 153.064C102.824 153.555 103.107 154.253 103.107 155.16V158.936ZM99.4268 159.896C99.8001 159.896 100.157 159.8 100.499 159.608C100.851 159.416 101.128 159.149 101.331 158.808V156.936H100.339C99.5281 156.936 98.9361 157.075 98.5628 157.352C98.1894 157.619 98.0028 158.008 98.0028 158.52C98.0028 158.968 98.1201 159.309 98.3548 159.544C98.6001 159.779 98.9574 159.896 99.4268 159.896ZM106.237 152.552H107.789L107.917 153.656C108.269 153.229 108.679 152.904 109.149 152.68C109.629 152.445 110.13 152.328 110.653 152.328C111.431 152.328 112.018 152.547 112.413 152.984C112.807 153.421 113.005 154.04 113.005 154.84V161H111.213V155.736C111.213 155.213 111.181 154.813 111.117 154.536C111.063 154.248 110.951 154.04 110.781 153.912C110.61 153.773 110.354 153.704 110.013 153.704C109.629 153.704 109.261 153.821 108.909 154.056C108.567 154.291 108.274 154.584 108.029 154.936V161H106.237V152.552ZM122.294 158.936C122.294 159.256 122.342 159.496 122.438 159.656C122.534 159.805 122.7 159.917 122.934 159.992L122.518 161.208C121.633 161.101 121.052 160.712 120.774 160.04C120.465 160.424 120.076 160.717 119.606 160.92C119.148 161.112 118.641 161.208 118.086 161.208C117.233 161.208 116.556 160.968 116.054 160.488C115.553 160.008 115.302 159.373 115.302 158.584C115.302 157.699 115.649 157.016 116.342 156.536C117.046 156.056 118.038 155.816 119.318 155.816H120.518V155.272C120.518 154.739 120.358 154.349 120.038 154.104C119.718 153.859 119.254 153.736 118.646 153.736C118.348 153.736 118.001 153.773 117.606 153.848C117.212 153.923 116.812 154.029 116.406 154.168L115.958 152.904C116.972 152.52 117.958 152.328 118.918 152.328C120.038 152.328 120.881 152.573 121.446 153.064C122.012 153.555 122.294 154.253 122.294 155.16V158.936ZM118.614 159.896C118.988 159.896 119.345 159.8 119.686 159.608C120.038 159.416 120.316 159.149 120.518 158.808V156.936H119.526C118.716 156.936 118.124 157.075 117.75 157.352C117.377 157.619 117.19 158.008 117.19 158.52C117.19 158.968 117.308 159.309 117.542 159.544C117.788 159.779 118.145 159.896 118.614 159.896ZM133.008 152.968C132.699 153.075 132.347 153.149 131.952 153.192C131.568 153.224 131.104 153.24 130.56 153.24C131.072 153.475 131.456 153.768 131.712 154.12C131.968 154.472 132.096 154.899 132.096 155.4C132.096 155.955 131.957 156.445 131.68 156.872C131.413 157.299 131.029 157.635 130.528 157.88C130.027 158.125 129.435 158.248 128.752 158.248C128.272 158.248 127.888 158.2 127.6 158.104C127.483 158.189 127.392 158.296 127.328 158.424C127.264 158.541 127.232 158.669 127.232 158.808C127.232 159.235 127.579 159.448 128.272 159.448H129.744C130.341 159.448 130.875 159.549 131.344 159.752C131.813 159.955 132.176 160.237 132.432 160.6C132.699 160.952 132.832 161.352 132.832 161.8C132.832 162.643 132.469 163.293 131.744 163.752C131.019 164.221 129.973 164.456 128.608 164.456C127.659 164.456 126.907 164.355 126.352 164.152C125.808 163.96 125.419 163.672 125.184 163.288C124.96 162.915 124.848 162.429 124.848 161.832H126.448C126.448 162.152 126.507 162.403 126.624 162.584C126.752 162.776 126.971 162.915 127.28 163C127.589 163.096 128.037 163.144 128.624 163.144C129.477 163.144 130.091 163.037 130.464 162.824C130.837 162.621 131.024 162.317 131.024 161.912C131.024 161.571 130.875 161.304 130.576 161.112C130.288 160.931 129.893 160.84 129.392 160.84H127.936C127.179 160.84 126.603 160.685 126.208 160.376C125.824 160.067 125.632 159.677 125.632 159.208C125.632 158.92 125.712 158.643 125.872 158.376C126.032 158.109 126.261 157.88 126.56 157.688C126.059 157.421 125.691 157.101 125.456 156.728C125.232 156.344 125.12 155.875 125.12 155.32C125.12 154.733 125.269 154.216 125.568 153.768C125.867 153.309 126.283 152.957 126.816 152.712C127.349 152.456 127.957 152.328 128.64 152.328C129.557 152.339 130.283 152.275 130.816 152.136C131.36 151.997 131.936 151.779 132.544 151.48L133.008 152.968ZM128.656 153.576C128.091 153.576 127.664 153.736 127.376 154.056C127.088 154.365 126.944 154.787 126.944 155.32C126.944 155.864 127.088 156.296 127.376 156.616C127.675 156.925 128.107 157.08 128.672 157.08C129.205 157.08 129.611 156.925 129.888 156.616C130.165 156.307 130.304 155.864 130.304 155.288C130.304 154.147 129.755 153.576 128.656 153.576ZM136.506 157.352C136.559 158.173 136.794 158.792 137.21 159.208C137.636 159.613 138.17 159.816 138.81 159.816C139.204 159.816 139.578 159.757 139.93 159.64C140.292 159.512 140.66 159.325 141.034 159.08L141.802 160.168C141.407 160.499 140.943 160.755 140.41 160.936C139.876 161.117 139.316 161.208 138.73 161.208C137.439 161.208 136.436 160.808 135.722 160.008C135.007 159.197 134.65 158.12 134.65 156.776C134.65 155.933 134.804 155.176 135.114 154.504C135.423 153.821 135.871 153.288 136.458 152.904C137.044 152.52 137.727 152.328 138.506 152.328C139.626 152.328 140.511 152.707 141.162 153.464C141.823 154.211 142.154 155.24 142.154 156.552C142.154 156.872 142.138 157.139 142.106 157.352H136.506ZM138.522 153.656C137.946 153.656 137.476 153.864 137.114 154.28C136.751 154.696 136.543 155.315 136.49 156.136H140.41C140.388 155.336 140.218 154.723 139.898 154.296C139.578 153.869 139.119 153.656 138.522 153.656ZM150.596 152.344C151.033 152.344 151.46 152.413 151.876 152.552L151.572 155.672H150.292V153.944C149.705 153.955 149.193 154.189 148.756 154.648C148.329 155.107 147.988 155.752 147.732 156.584V159.72H149.428V161H144.692V159.72H145.94V153.832H144.692V152.552H147.299L147.62 154.504C147.95 153.779 148.35 153.24 148.82 152.888C149.3 152.525 149.892 152.344 150.596 152.344ZM157.277 159.848C157.843 159.848 158.285 159.747 158.605 159.544C158.936 159.341 159.101 159.064 159.101 158.712C159.101 158.467 159.053 158.269 158.957 158.12C158.861 157.96 158.669 157.816 158.381 157.688C158.093 157.549 157.661 157.405 157.085 157.256C156.157 157.021 155.459 156.723 154.989 156.36C154.531 155.987 154.301 155.453 154.301 154.76C154.301 154.024 154.605 153.437 155.213 153C155.821 152.552 156.643 152.328 157.677 152.328C158.925 152.328 159.997 152.653 160.893 153.304L160.125 154.44C159.368 153.939 158.568 153.688 157.725 153.688C156.659 153.688 156.125 153.997 156.125 154.616C156.125 154.829 156.184 155.005 156.301 155.144C156.429 155.283 156.643 155.416 156.941 155.544C157.24 155.661 157.683 155.8 158.269 155.96C159.187 156.216 159.869 156.531 160.317 156.904C160.776 157.277 161.005 157.837 161.005 158.584C161.005 159.448 160.648 160.104 159.933 160.552C159.219 160.989 158.333 161.208 157.277 161.208C155.88 161.208 154.723 160.813 153.805 160.024L154.749 158.936C155.101 159.213 155.491 159.437 155.917 159.608C156.355 159.768 156.808 159.848 157.277 159.848Z" fill="#909090"/>
</svg>
