<svg width="240" height="180" viewBox="0 0 240 180" fill="none" xmlns="http://www.w3.org/2000/svg">
<path d="M161.379 41.8276H78.6207V45.9656H161.379V41.8276Z" fill="#605F5E"/>
<path d="M161.379 74.931H78.6207V79.069H161.379V74.931Z" fill="#605F5E"/>
<path d="M161.379 108.034H78.6207V112.172H161.379V108.034Z" fill="#605F5E"/>
<path d="M60 17V137H180V17H60ZM175.862 132.862H64.1379V21.1379H175.862V132.862Z" fill="#605F5E"/>
<path d="M106.216 161H104.504L104.248 155.624C104.216 154.92 104.2 154.243 104.2 153.592C104.2 152.749 104.216 152.083 104.248 151.592L102.616 159.048H101L99.2556 151.592C99.2983 152.136 99.3196 152.973 99.3196 154.104C99.3196 154.787 99.3143 155.299 99.3036 155.64L99.0796 161H97.4156L98.0396 149.96H100.264L101.848 157.352L103.352 149.96H105.592L106.216 161ZM109.521 157.352C109.575 158.173 109.809 158.792 110.225 159.208C110.652 159.613 111.185 159.816 111.825 159.816C112.22 159.816 112.593 159.757 112.945 159.64C113.308 159.512 113.676 159.325 114.049 159.08L114.817 160.168C114.423 160.499 113.959 160.755 113.425 160.936C112.892 161.117 112.332 161.208 111.745 161.208C110.455 161.208 109.452 160.808 108.737 160.008C108.023 159.197 107.665 158.12 107.665 156.776C107.665 155.933 107.82 155.176 108.129 154.504C108.439 153.821 108.887 153.288 109.473 152.904C110.06 152.52 110.743 152.328 111.521 152.328C112.641 152.328 113.527 152.707 114.177 153.464C114.839 154.211 115.169 155.24 115.169 156.552C115.169 156.872 115.153 157.139 115.121 157.352H109.521ZM111.537 153.656C110.961 153.656 110.492 153.864 110.129 154.28C109.767 154.696 109.559 155.315 109.505 156.136H113.425C113.404 155.336 113.233 154.723 112.913 154.296C112.593 153.869 112.135 153.656 111.537 153.656ZM117.627 152.552H119.179L119.307 153.656C119.659 153.229 120.07 152.904 120.539 152.68C121.019 152.445 121.52 152.328 122.043 152.328C122.822 152.328 123.408 152.547 123.803 152.984C124.198 153.421 124.395 154.04 124.395 154.84V161H122.603V155.736C122.603 155.213 122.571 154.813 122.507 154.536C122.454 154.248 122.342 154.04 122.171 153.912C122 153.773 121.744 153.704 121.403 153.704C121.019 153.704 120.651 153.821 120.299 154.056C119.958 154.291 119.664 154.584 119.419 154.936V161H117.627V152.552ZM129.013 158.456C129.013 158.947 129.109 159.304 129.301 159.528C129.504 159.741 129.808 159.848 130.213 159.848C130.597 159.848 130.965 159.736 131.317 159.512C131.68 159.288 131.968 159.005 132.181 158.664V152.552H133.973V161H132.421L132.309 159.912C132.01 160.328 131.621 160.648 131.141 160.872C130.661 161.096 130.165 161.208 129.653 161.208C128.842 161.208 128.234 160.989 127.829 160.552C127.424 160.115 127.221 159.491 127.221 158.68V152.552H129.013V158.456ZM139.887 159.848C140.452 159.848 140.895 159.747 141.215 159.544C141.545 159.341 141.711 159.064 141.711 158.712C141.711 158.467 141.663 158.269 141.567 158.12C141.471 157.96 141.279 157.816 140.991 157.688C140.703 157.549 140.271 157.405 139.695 157.256C138.767 157.021 138.068 156.723 137.599 156.36C137.14 155.987 136.911 155.453 136.911 154.76C136.911 154.024 137.215 153.437 137.823 153C138.431 152.552 139.252 152.328 140.287 152.328C141.535 152.328 142.607 152.653 143.503 153.304L142.735 154.44C141.977 153.939 141.177 153.688 140.335 153.688C139.268 153.688 138.735 153.997 138.735 154.616C138.735 154.829 138.793 155.005 138.911 155.144C139.039 155.283 139.252 155.416 139.551 155.544C139.849 155.661 140.292 155.8 140.879 155.96C141.796 156.216 142.479 156.531 142.927 156.904C143.385 157.277 143.615 157.837 143.615 158.584C143.615 159.448 143.257 160.104 142.543 160.552C141.828 160.989 140.943 161.208 139.887 161.208C138.489 161.208 137.332 160.813 136.415 160.024L137.359 158.936C137.711 159.213 138.1 159.437 138.527 159.608C138.964 159.768 139.417 159.848 139.887 159.848Z" fill="#909090"/>
</svg>
