<svg width="120" height="120" viewBox="0 0 120 120" fill="none" xmlns="http://www.w3.org/2000/svg">
<path d="M56.077 84.2307C57.6923 84.2307 59.3077 84.4615 60.6923 84.923L35.7693 14.3077L33.4616 7.38459C32.7693 5.30767 30.6923 4.38459 28.8462 5.0769L7.15388 12.2307C5.07696 12.9231 4.15388 15 4.84619 16.8461L7.15388 23.7692C7.84619 25.8461 9.92311 26.7692 11.7693 26.0769L23.077 22.3846L45.9231 87.2307C48.9231 85.3846 52.3846 84.2307 56.077 84.2307Z" fill="#605F5E"/>
<path d="M95.077 67.3846L72.2308 75.4615C69.9231 76.3846 67.1539 75 66.4616 72.6923L58.3847 49.8461C57.4616 47.5384 58.8462 44.7692 61.1539 44.0769L84 36C86.3077 35.0769 89.077 36.4615 89.7693 38.7692L97.8462 61.6153C98.7693 63.923 97.3847 66.4615 95.077 67.3846Z" fill="#605F5E"/>
<path d="M73.3847 29.7692L57.9231 35.0769C55.6154 36 52.8462 34.6154 52.1539 32.3077L46.8462 16.8462C45.9231 14.5385 47.3077 11.7692 49.6154 11.0769L65.077 5.76924C67.3847 4.84616 70.1539 6.23078 70.8462 8.53847L76.1539 24C77.077 26.0769 75.9231 28.8462 73.3847 29.7692Z" fill="#605F5E"/>
<path d="M115.154 81.923L112.846 74.9999C112.154 72.923 110.077 71.9999 108.231 72.6923L66.2308 87.2307C70.6155 89.9999 73.6154 94.6153 74.5385 99.923L113.077 86.7692C114.923 86.0769 115.846 83.9999 115.154 81.923Z" fill="#605F5E"/>
<path d="M56.077 90.2307C49.1539 90.2307 43.3846 95.9999 43.3846 102.923C43.3846 109.846 49.1539 115.615 56.077 115.615C63 115.615 68.7693 109.846 68.7693 102.923C68.7693 95.7692 63 90.2307 56.077 90.2307Z" fill="#605F5E"/>
</svg>
