<svg width="240" height="180" viewBox="0 0 240 180" fill="none" xmlns="http://www.w3.org/2000/svg">
<path d="M110.211 160.48C110.211 162.229 109.848 163.621 109.123 164.656C108.408 165.691 107.373 166.208 106.019 166.208C104.664 166.208 103.624 165.701 102.899 164.688C102.184 163.664 101.827 162.267 101.827 160.496C101.827 158.747 102.184 157.349 102.899 156.304C103.624 155.259 104.664 154.736 106.019 154.736C107.373 154.736 108.408 155.253 109.123 156.288C109.848 157.312 110.211 158.709 110.211 160.48ZM108.307 160.48C108.307 159.029 108.125 157.952 107.763 157.248C107.4 156.544 106.819 156.192 106.019 156.192C105.219 156.192 104.637 156.544 104.275 157.248C103.912 157.952 103.731 159.035 103.731 160.496C103.731 161.936 103.912 163.008 104.275 163.712C104.648 164.416 105.229 164.768 106.019 164.768C106.819 164.768 107.4 164.416 107.763 163.712C108.125 163.008 108.307 161.931 108.307 160.48ZM118.221 157.344C118.658 157.344 119.085 157.413 119.501 157.552L119.197 160.672H117.917V158.944C117.33 158.955 116.818 159.189 116.381 159.648C115.954 160.107 115.613 160.752 115.357 161.584V164.72H117.053V166H112.317V164.72H113.565V158.832H112.317V157.552H114.924L115.245 159.504C115.575 158.779 115.975 158.24 116.445 157.888C116.925 157.525 117.517 157.344 118.221 157.344ZM128.582 154.16V166H126.998L126.87 164.96C126.593 165.365 126.252 165.675 125.846 165.888C125.441 166.101 124.993 166.208 124.502 166.208C123.446 166.208 122.652 165.813 122.118 165.024C121.585 164.235 121.318 163.152 121.318 161.776C121.318 160.912 121.452 160.144 121.718 159.472C121.996 158.8 122.385 158.277 122.886 157.904C123.388 157.52 123.98 157.328 124.662 157.328C125.526 157.328 126.236 157.637 126.79 158.256V153.952L128.582 154.16ZM125.126 158.704C124.508 158.704 124.033 158.96 123.702 159.472C123.382 159.973 123.222 160.741 123.222 161.776C123.222 163.824 123.809 164.848 124.982 164.848C125.686 164.848 126.289 164.443 126.79 163.632V159.648C126.353 159.019 125.798 158.704 125.126 158.704ZM132.912 162.352C132.965 163.173 133.2 163.792 133.616 164.208C134.043 164.613 134.576 164.816 135.216 164.816C135.611 164.816 135.984 164.757 136.336 164.64C136.699 164.512 137.067 164.325 137.44 164.08L138.208 165.168C137.813 165.499 137.349 165.755 136.816 165.936C136.283 166.117 135.723 166.208 135.136 166.208C133.845 166.208 132.843 165.808 132.128 165.008C131.413 164.197 131.056 163.12 131.056 161.776C131.056 160.933 131.211 160.176 131.52 159.504C131.829 158.821 132.277 158.288 132.864 157.904C133.451 157.52 134.133 157.328 134.912 157.328C136.032 157.328 136.917 157.707 137.568 158.464C138.229 159.211 138.56 160.24 138.56 161.552C138.56 161.872 138.544 162.139 138.512 162.352H132.912ZM134.928 158.656C134.352 158.656 133.883 158.864 133.52 159.28C133.157 159.696 132.949 160.315 132.896 161.136H136.816C136.795 160.336 136.624 159.723 136.304 159.296C135.984 158.869 135.525 158.656 134.928 158.656ZM147.002 157.344C147.439 157.344 147.866 157.413 148.282 157.552L147.978 160.672H146.698V158.944C146.111 158.955 145.599 159.189 145.162 159.648C144.735 160.107 144.394 160.752 144.138 161.584V164.72H145.834V166H141.098V164.72H142.346V158.832H141.098V157.552H143.706L144.026 159.504C144.356 158.779 144.756 158.24 145.226 157.888C145.706 157.525 146.298 157.344 147.002 157.344ZM153.684 164.848C154.249 164.848 154.692 164.747 155.012 164.544C155.342 164.341 155.508 164.064 155.508 163.712C155.508 163.467 155.46 163.269 155.364 163.12C155.268 162.96 155.076 162.816 154.788 162.688C154.5 162.549 154.068 162.405 153.492 162.256C152.564 162.021 151.865 161.723 151.396 161.36C150.937 160.987 150.708 160.453 150.708 159.76C150.708 159.024 151.012 158.437 151.62 158C152.228 157.552 153.049 157.328 154.084 157.328C155.332 157.328 156.404 157.653 157.3 158.304L156.532 159.44C155.774 158.939 154.974 158.688 154.132 158.688C153.065 158.688 152.532 158.997 152.532 159.616C152.532 159.829 152.59 160.005 152.708 160.144C152.836 160.283 153.049 160.416 153.348 160.544C153.646 160.661 154.089 160.8 154.676 160.96C155.593 161.216 156.276 161.531 156.724 161.904C157.182 162.277 157.411 162.837 157.411 163.584C157.411 164.448 157.054 165.104 156.34 165.552C155.625 165.989 154.74 166.208 153.684 166.208C152.286 166.208 151.129 165.813 150.212 165.024L151.156 163.936C151.508 164.213 151.897 164.437 152.324 164.608C152.761 164.768 153.214 164.848 153.684 164.848Z" fill="#909090"/>
<path d="M120.077 96.2307C121.692 96.2307 123.308 96.4615 124.692 96.923L99.7693 26.3077L97.4616 19.3846C96.7693 17.3077 94.6923 16.3846 92.8462 17.0769L71.1539 24.2307C69.077 24.9231 68.1539 27 68.8462 28.8461L71.1539 35.7692C71.8462 37.8461 73.9231 38.7692 75.7693 38.0769L87.077 34.3846L109.923 99.2307C112.923 97.3846 116.385 96.2307 120.077 96.2307Z" fill="#605F5E"/>
<path d="M159.077 79.3846L136.231 87.4615C133.923 88.3846 131.154 86.9999 130.462 84.6923L122.385 61.8461C121.462 59.5384 122.846 56.7692 125.154 56.0769L148 48C150.308 47.0769 153.077 48.4615 153.769 50.7692L161.846 73.6153C162.769 75.923 161.385 78.4615 159.077 79.3846Z" fill="#605F5E"/>
<path d="M137.385 41.7692L121.923 47.0769C119.615 48 116.846 46.6154 116.154 44.3077L110.846 28.8462C109.923 26.5385 111.308 23.7692 113.615 23.0769L129.077 17.7692C131.385 16.8462 134.154 18.2308 134.846 20.5385L140.154 36C141.077 38.0769 139.923 40.8462 137.385 41.7692Z" fill="#605F5E"/>
<path d="M179.154 93.923L176.846 86.9999C176.154 84.923 174.077 83.9999 172.231 84.6923L130.231 99.2307C134.615 102 137.615 106.615 138.539 111.923L177.077 98.7692C178.923 98.0769 179.846 95.9999 179.154 93.923Z" fill="#605F5E"/>
<path d="M120.077 102.231C113.154 102.231 107.385 108 107.385 114.923C107.385 121.846 113.154 127.615 120.077 127.615C127 127.615 132.769 121.846 132.769 114.923C132.769 107.769 127 102.231 120.077 102.231Z" fill="#605F5E"/>
</svg>
