<svg width="75" height="75" viewBox="0 0 75 75" fill="none" xmlns="http://www.w3.org/2000/svg">
<path d="M56.3521 27.0065H17.6479C17.2901 27.0065 17 27.2966 17 27.6544V30.419C17 30.7768 17.2901 31.0669 17.6479 31.0669H17.6911V42.8596C17.6911 43.2174 17.9813 43.5075 18.3391 43.5075H27.3672V44.9762H25.9417C25.5838 44.9762 25.2937 45.2663 25.2937 45.6242C25.2937 45.982 25.5838 46.2721 25.9417 46.2721H30.0886C30.4464 46.2721 30.7365 45.982 30.7365 45.6242C30.7365 45.2663 30.4464 44.9762 30.0886 44.9762H28.6631V43.5075H45.3369V44.9762H43.9114C43.5536 44.9762 43.2635 45.2663 43.2635 45.6242C43.2635 45.982 43.5536 46.2721 43.9114 46.2721H48.0583C48.4162 46.2721 48.7063 45.982 48.7063 45.6242C48.7063 45.2663 48.4162 44.9762 48.0583 44.9762H46.6328V43.5075H55.6609C56.0187 43.5075 56.3089 43.2174 56.3089 42.8596V31.0669H56.3521C56.7099 31.0669 57 30.7768 57 30.419V27.6544C57 27.2966 56.7099 27.0065 56.3521 27.0065ZM27.3672 42.2117H18.987V31.0669H23.5021L24.3775 35.0063C24.5855 35.9424 25.4005 36.5961 26.3594 36.5961H27.3672V42.2117ZM26.3594 35.3002C26.0125 35.3002 25.7178 35.0637 25.6425 34.7252L25.444 33.8315H30.7797C31.1846 33.8315 31.514 34.1609 31.514 34.5659C31.514 34.9708 31.1846 35.3002 30.7797 35.3002H26.3594ZM45.3369 39.4471H43.2203C42.8625 39.4471 42.5724 39.7372 42.5724 40.095C42.5724 40.4529 42.8625 40.743 43.2203 40.743H45.3369V42.2117H28.6631V40.743H30.7797C31.1375 40.743 31.4276 40.4529 31.4276 40.095C31.4276 39.7372 31.1375 39.4471 30.7797 39.4471H28.6631V36.5961H30.7797C31.8992 36.5961 32.8099 35.6853 32.8099 34.5659C32.8099 33.4464 31.8992 32.5356 30.7797 32.5356H25.2505C25.2189 32.5356 25.1878 32.5379 25.1574 32.5423L24.8295 31.0669H49.1704L48.8425 32.5423C48.8121 32.5379 48.7811 32.5356 48.7494 32.5356H43.2202C42.1007 32.5356 41.19 33.4464 41.19 34.5659C41.19 35.6853 42.1007 36.5961 43.2202 36.5961H45.3369V39.4471ZM43.2203 35.3002C42.8154 35.3002 42.486 34.9708 42.486 34.5659C42.486 34.1609 42.8154 33.8315 43.2203 33.8315H48.556L48.3575 34.7252C48.2822 35.0637 47.9875 35.3002 47.6406 35.3002H43.2203ZM55.013 42.2117H46.6328V36.5961H47.6406C48.5995 36.5961 49.4145 35.9424 49.6225 35.0063L50.4979 31.0669H55.013V42.2117ZM55.7041 29.771H55.6609H50.7775C50.7989 29.4569 50.5891 29.1657 50.2723 29.0954C49.9233 29.0178 49.5769 29.238 49.4993 29.5873L49.4584 29.771H24.5416L24.5007 29.5873C24.4231 29.238 24.0772 29.0176 23.7277 29.0954C23.411 29.1657 23.2011 29.457 23.2225 29.771H18.3391H18.2959V28.3024H55.7041V29.771Z" fill="#605F5E"/>
<path d="M56.3521 9.72784H17.6479C17.2901 9.72784 17 10.018 17 10.3758V13.1404C17 13.4982 17.2901 13.7883 17.6479 13.7883H25.2937V16.0106C23.721 16.3143 22.5292 17.7005 22.5292 19.3607C22.5292 19.7185 22.8193 20.0086 23.1771 20.0086H25.2937V20.0518C25.2937 20.4097 25.5838 20.6998 25.9417 20.6998C26.2995 20.6998 26.5896 20.4097 26.5896 20.0518V20.0086H28.7063C29.0641 20.0086 29.3542 19.7185 29.3542 19.3607C29.3542 17.7005 28.1624 16.3143 26.5896 16.0106V13.7883H36.3521V16.0106C34.7793 16.3143 33.5875 17.7005 33.5875 19.3607C33.5875 19.7185 33.8776 20.0086 34.2354 20.0086H36.3521V20.0518C36.3521 20.4097 36.6422 20.6998 37 20.6998C37.3578 20.6998 37.6479 20.4097 37.6479 20.0518V20.0086H39.7646C40.1224 20.0086 40.4125 19.7185 40.4125 19.3607C40.4125 17.7005 39.2207 16.3143 37.6479 16.0106V13.7883H47.4104V16.0106C45.8376 16.3143 44.6458 17.7005 44.6458 19.3607C44.6458 19.7185 44.9359 20.0086 45.2937 20.0086H47.4104V20.0518C47.4104 20.4097 47.7005 20.6998 48.0583 20.6998C48.4162 20.6998 48.7063 20.4097 48.7063 20.0518V20.0086H50.8229C51.1807 20.0086 51.4708 19.7185 51.4708 19.3607C51.4708 17.7005 50.279 16.3143 48.7063 16.0106V13.7883H56.3521C56.7099 13.7883 57 13.4982 57 13.1404V10.3758C57 10.018 56.7099 9.72784 56.3521 9.72784ZM27.9569 18.7127H23.9265C24.2008 17.8615 25.0005 17.244 25.9417 17.244C26.8829 17.244 27.6826 17.8615 27.9569 18.7127ZM39.0152 18.7127H34.9848C35.2591 17.8615 36.0588 17.244 37 17.244C37.9412 17.244 38.7409 17.8615 39.0152 18.7127ZM50.0735 18.7127H46.0431C46.3174 17.8615 47.1171 17.244 48.0583 17.244C48.9995 17.244 49.7992 17.8615 50.0735 18.7127ZM55.7041 12.4924H18.2959V11.0237H55.7041V12.4924Z" fill="#605F5E"/>
<path d="M21.4472 57.851C21.4472 58.8563 21.1352 59.6017 20.5112 60.087C19.8872 60.5637 19.0336 60.802 17.9502 60.802H16.8582V64H15.3632V55.03H17.8462C18.9989 55.03 19.8872 55.2683 20.5112 55.745C21.1352 56.213 21.4472 56.915 21.4472 57.851ZM19.8742 57.851C19.8742 56.7243 19.2329 56.161 17.9502 56.161H16.8582V59.658H17.9632C18.5699 59.658 19.0379 59.5193 19.3672 59.242C19.7052 58.9647 19.8742 58.501 19.8742 57.851ZM26.0832 62.128C26.0832 62.7087 26.4298 62.999 27.1232 62.999C27.4698 62.999 27.8338 62.921 28.2152 62.765L28.5792 63.779C28.1025 64.039 27.5132 64.169 26.8112 64.169C26.1265 64.169 25.5892 63.9783 25.1992 63.597C24.8178 63.207 24.6272 62.674 24.6272 61.998V55.446H22.5602V54.38H26.0832V62.128ZM36.1141 62.323C36.1141 62.583 36.1531 62.778 36.2311 62.908C36.3091 63.0293 36.4434 63.1203 36.6341 63.181L36.2961 64.169C35.5767 64.0823 35.1044 63.766 34.8791 63.22C34.6277 63.532 34.3114 63.7703 33.9301 63.935C33.5574 64.091 33.1457 64.169 32.6951 64.169C32.0017 64.169 31.4514 63.974 31.0441 63.584C30.6367 63.194 30.4331 62.6783 30.4331 62.037C30.4331 61.3177 30.7147 60.763 31.2781 60.373C31.8501 59.983 32.6561 59.788 33.6961 59.788H34.6711V59.346C34.6711 58.9127 34.5411 58.5963 34.2811 58.397C34.0211 58.1977 33.6441 58.098 33.1501 58.098C32.9074 58.098 32.6257 58.1283 32.3051 58.189C31.9844 58.2497 31.6594 58.3363 31.3301 58.449L30.9661 57.422C31.7894 57.11 32.5911 56.954 33.3711 56.954C34.2811 56.954 34.9657 57.1533 35.4251 57.552C35.8844 57.9507 36.1141 58.5183 36.1141 59.255V62.323ZM33.1241 63.103C33.4274 63.103 33.7177 63.025 33.9951 62.869C34.2811 62.713 34.5064 62.4963 34.6711 62.219V60.698H33.8651C33.2064 60.698 32.7254 60.8107 32.4221 61.036C32.1187 61.2527 31.9671 61.569 31.9671 61.985C31.9671 62.349 32.0624 62.6263 32.2531 62.817C32.4524 63.0077 32.7427 63.103 33.1241 63.103ZM41.972 62.973C42.518 62.973 43.0813 62.778 43.662 62.388L44.325 63.324C44.0217 63.584 43.6577 63.792 43.233 63.948C42.8083 64.0953 42.3707 64.169 41.92 64.169C40.8713 64.169 40.0523 63.8483 39.463 63.207C38.8737 62.557 38.579 61.6903 38.579 60.607C38.579 59.905 38.7133 59.281 38.982 58.735C39.2507 58.1803 39.6363 57.747 40.139 57.435C40.6503 57.1143 41.2527 56.954 41.946 56.954C42.856 56.954 43.649 57.2313 44.325 57.786L43.649 58.696C43.0943 58.3147 42.5353 58.124 41.972 58.124C41.4 58.124 40.9493 58.332 40.62 58.748C40.2907 59.1553 40.126 59.775 40.126 60.607C40.126 61.4217 40.2907 62.0197 40.62 62.401C40.9493 62.7823 41.4 62.973 41.972 62.973ZM47.6609 61.036C47.7043 61.7033 47.8949 62.206 48.2329 62.544C48.5796 62.8733 49.0129 63.038 49.5329 63.038C49.8536 63.038 50.1569 62.9903 50.4429 62.895C50.7376 62.791 51.0366 62.6393 51.3399 62.44L51.9639 63.324C51.6433 63.5927 51.2663 63.8007 50.8329 63.948C50.3996 64.0953 49.9446 64.169 49.4679 64.169C48.4193 64.169 47.6046 63.844 47.0239 63.194C46.4433 62.5353 46.1529 61.66 46.1529 60.568C46.1529 59.8833 46.2786 59.268 46.5299 58.722C46.7813 58.1673 47.1453 57.734 47.6219 57.422C48.0986 57.11 48.6533 56.954 49.2859 56.954C50.1959 56.954 50.9153 57.2617 51.4439 57.877C51.9813 58.4837 52.2499 59.32 52.2499 60.386C52.2499 60.646 52.2369 60.8627 52.2109 61.036H47.6609ZM49.2989 58.033C48.8309 58.033 48.4496 58.202 48.1549 58.54C47.8603 58.878 47.6913 59.3807 47.6479 60.048H50.8329C50.8156 59.398 50.6769 58.8997 50.4169 58.553C50.1569 58.2063 49.7843 58.033 49.2989 58.033ZM56.7428 63.064C57.2022 63.064 57.5618 62.9817 57.8218 62.817C58.0905 62.6523 58.2248 62.427 58.2248 62.141C58.2248 61.9417 58.1858 61.7813 58.1078 61.66C58.0298 61.53 57.8738 61.413 57.6398 61.309C57.4058 61.1963 57.0548 61.0793 56.5868 60.958C55.8328 60.7673 55.2652 60.5247 54.8838 60.23C54.5112 59.9267 54.3248 59.4933 54.3248 58.93C54.3248 58.332 54.5718 57.8553 55.0658 57.5C55.5598 57.136 56.2272 56.954 57.0678 56.954C58.0818 56.954 58.9528 57.2183 59.6808 57.747L59.0568 58.67C58.4415 58.2627 57.7915 58.059 57.1068 58.059C56.2402 58.059 55.8068 58.3103 55.8068 58.813C55.8068 58.9863 55.8545 59.1293 55.9498 59.242C56.0538 59.3547 56.2272 59.463 56.4698 59.567C56.7125 59.6623 57.0722 59.775 57.5488 59.905C58.2942 60.113 58.8488 60.3687 59.2128 60.672C59.5855 60.9753 59.7718 61.4303 59.7718 62.037C59.7718 62.739 59.4815 63.272 58.9008 63.636C58.3202 63.9913 57.6008 64.169 56.7428 64.169C55.6075 64.169 54.6672 63.8483 53.9218 63.207L54.6888 62.323C54.9748 62.5483 55.2912 62.7303 55.6378 62.869C55.9932 62.999 56.3615 63.064 56.7428 63.064Z" fill="#605F5E"/>
</svg>
