<svg width="75" height="75" viewBox="0 0 75 75" fill="none" xmlns="http://www.w3.org/2000/svg">
<path d="M17.5498 57.851C17.5498 58.8563 17.2378 59.6017 16.6138 60.087C15.9898 60.5637 15.1361 60.802 14.0528 60.802H12.9608V64H11.4658V55.03H13.9488C15.1014 55.03 15.9898 55.2683 16.6138 55.745C17.2378 56.213 17.5498 56.915 17.5498 57.851ZM15.9768 57.851C15.9768 56.7243 15.3354 56.161 14.0528 56.161H12.9608V59.658H14.0658C14.6724 59.658 15.1404 59.5193 15.4698 59.242C15.8078 58.9647 15.9768 58.501 15.9768 57.851ZM24.0317 56.967C24.387 56.967 24.7337 57.0233 25.0717 57.136L24.8247 59.671H23.7847V58.267C23.308 58.2757 22.892 58.4663 22.5367 58.839C22.19 59.2117 21.9127 59.736 21.7047 60.412V62.96H23.0827V64H19.2347V62.96H20.2487V58.176H19.2347V57.136H21.3537L21.6137 58.722C21.8824 58.1327 22.2074 57.695 22.5887 57.409C22.9787 57.1143 23.4597 56.967 24.0317 56.967ZM29.7206 56.954C30.7086 56.954 31.4713 57.279 32.0086 57.929C32.546 58.5703 32.8146 59.4457 32.8146 60.555C32.8146 61.6643 32.5416 62.544 31.9956 63.194C31.4496 63.844 30.687 64.169 29.7076 64.169C28.7196 64.169 27.9526 63.8527 27.4066 63.22C26.8693 62.5787 26.6006 61.6947 26.6006 60.568C26.6006 59.476 26.8736 58.6007 27.4196 57.942C27.9743 57.2833 28.7413 56.954 29.7206 56.954ZM29.7206 58.085C29.192 58.085 28.7933 58.2887 28.5246 58.696C28.2646 59.1033 28.1346 59.7273 28.1346 60.568C28.1346 61.4173 28.2646 62.0457 28.5246 62.453C28.7846 62.8517 29.179 63.051 29.7076 63.051C30.2363 63.051 30.6306 62.8473 30.8906 62.44C31.1506 62.0327 31.2806 61.4043 31.2806 60.555C31.2806 59.7143 31.1506 59.0947 30.8906 58.696C30.6306 58.2887 30.2406 58.085 29.7206 58.085ZM40.2455 54.38V64H38.9585L38.8545 63.155C38.6292 63.4843 38.3519 63.7357 38.0225 63.909C37.6932 64.0823 37.3292 64.169 36.9305 64.169C36.0725 64.169 35.4269 63.8483 34.9935 63.207C34.5602 62.5657 34.3435 61.686 34.3435 60.568C34.3435 59.866 34.4519 59.242 34.6685 58.696C34.8939 58.15 35.2102 57.7253 35.6175 57.422C36.0249 57.11 36.5059 56.954 37.0605 56.954C37.7625 56.954 38.3389 57.2053 38.7895 57.708V54.211L40.2455 54.38ZM37.4375 58.072C36.9349 58.072 36.5492 58.28 36.2805 58.696C36.0205 59.1033 35.8905 59.7273 35.8905 60.568C35.8905 62.232 36.3672 63.064 37.3205 63.064C37.8925 63.064 38.3822 62.7347 38.7895 62.076V58.839C38.4342 58.3277 37.9835 58.072 37.4375 58.072ZM44.0105 61.933C44.0105 62.3317 44.0885 62.622 44.2445 62.804C44.4091 62.9773 44.6561 63.064 44.9855 63.064C45.2975 63.064 45.5965 62.973 45.8825 62.791C46.1771 62.609 46.4111 62.3793 46.5845 62.102V57.136H48.0405V64H46.7795L46.6885 63.116C46.4458 63.454 46.1295 63.714 45.7395 63.896C45.3495 64.078 44.9465 64.169 44.5305 64.169C43.8718 64.169 43.3778 63.9913 43.0485 63.636C42.7191 63.2807 42.5545 62.7737 42.5545 62.115V57.136H44.0105V61.933ZM53.6644 62.973C54.2104 62.973 54.7737 62.778 55.3544 62.388L56.0174 63.324C55.714 63.584 55.35 63.792 54.9254 63.948C54.5007 64.0953 54.063 64.169 53.6124 64.169C52.5637 64.169 51.7447 63.8483 51.1554 63.207C50.566 62.557 50.2714 61.6903 50.2714 60.607C50.2714 59.905 50.4057 59.281 50.6744 58.735C50.943 58.1803 51.3287 57.747 51.8314 57.435C52.3427 57.1143 52.945 56.954 53.6384 56.954C54.5484 56.954 55.3414 57.2313 56.0174 57.786L55.3414 58.696C54.7867 58.3147 54.2277 58.124 53.6644 58.124C53.0924 58.124 52.6417 58.332 52.3124 58.748C51.983 59.1553 51.8184 59.775 51.8184 60.607C51.8184 61.4217 51.983 62.0197 52.3124 62.401C52.6417 62.7823 53.0924 62.973 53.6644 62.973ZM63.8773 63.636C63.6173 63.8007 63.314 63.9307 62.9673 64.026C62.6206 64.1213 62.2566 64.169 61.8753 64.169C61.0953 64.169 60.493 63.9697 60.0683 63.571C59.6436 63.1637 59.4313 62.6133 59.4313 61.92V58.202H57.9103V57.136H59.4313V55.602L60.8873 55.433V57.136H63.2143L63.0453 58.202H60.8873V61.907C60.8873 62.2797 60.9826 62.557 61.1733 62.739C61.364 62.9123 61.6673 62.999 62.0833 62.999C62.5426 62.999 62.9673 62.8907 63.3573 62.674L63.8773 63.636Z" fill="#605F5E"/>
<path d="M38.2837 30.2538H38.2839L51.2766 13.6236H43.7753L47.3419 7.25461L45.1015 6L40.8323 13.6236H22.7234L35.7161 30.2538V43.4322H30.5414V46H43.4584V43.4322H38.2837V30.2538ZM27.988 16.1913H46.012L37.0001 27.7263L27.988 16.1913Z" fill="#605F5E"/>
</svg>
