<svg xmlns="http://www.w3.org/2000/svg" viewBox="0 0 500 500"><defs><style>.cls-1{fill:#101010;}</style></defs><title>CRFTSHK</title><g id="Layer_2" data-name="Layer 2"><g id="Layer_1-2" data-name="Layer 1"><path class="cls-1" d="M499.89,242.68A248,248,0,0,0,437.14,84.2q-5-5.61-10.36-11l-.13-.13A248.21,248.21,0,0,0,257.32.11C254.88,0,252.44,0,250,0s-4.88,0-7.32.11a248.21,248.21,0,0,0-169.33,73l-.13.13q-5.35,5.36-10.36,11A248,248,0,0,0,.11,242.68C0,245.12,0,247.56,0,250s0,4.88.11,7.32H48.67c3.38,94.28,71.88,172.27,161.78,190.23,5.09,1,10.26,1.85,15.47,2.47,5.52.66,11.11,1.11,16.76,1.3v48.57c2.44.08,4.88.11,7.32.11s4.88,0,7.32-.11A250.75,250.75,0,0,0,300.06,495q7.51-1.5,14.88-3.48a250.3,250.3,0,0,0,185-234.21c.08-2.44.11-4.88.11-7.32S500,245.12,499.89,242.68ZM436.83,250c0,2.45-.06,4.89-.15,7.32-3.44,88.89-69.29,162.06-154.89,176.8q-7.76,1.33-15.72,2c-2.9.24-5.81.43-8.75.54V402.74c2.05-.09,4.09-.23,6.13-.4,75.65-6.62,135.68-68.56,139.29-145q.18-3.65.18-7.32t-.18-7.32H345.63l29.62-51.3L384,176.3l19.18-33.21a185.6,185.6,0,0,1,33.54,99.59C436.77,245.11,436.83,247.55,436.83,250Zm-99.65,7.32H388.1A138.49,138.49,0,0,1,261.85,387.78ZM257.32,366.37,250,379.05l-7.32-12.68-63-109H320.28ZM375.18,162.25,367,176.38l-38.29,66.3H171.27L133,176.38a138.41,138.41,0,0,1,109.7-64.48V97.26a152.83,152.83,0,0,0-117.86,65L106.5,130.5A186.47,186.47,0,0,1,242.68,63.31c2.43-.09,4.87-.15,7.32-.15s4.89.06,7.32.15A186.47,186.47,0,0,1,393.5,130.5ZM154.37,242.68H111.9a137.37,137.37,0,0,1,12.85-51.3ZM116,176.3a151.52,151.52,0,0,0-18.78,66.38H63.32a185.6,185.6,0,0,1,33.54-99.59ZM233.93,436.14q-8-.67-15.72-2c-85.6-14.74-151.45-87.91-154.89-176.8h99.5l75.33,130.46h0l3.39,5.89,1.13,2v41C239.74,436.57,236.83,436.38,233.93,436.14ZM485.26,257.32a235.65,235.65,0,0,1-177.92,221q-7.44,1.86-15,3.22a236.06,236.06,0,0,1-35,3.67V451.32c5.65-.19,11.24-.64,16.76-1.3,5.21-.62,10.38-1.44,15.47-2.47,89.9-18,158.4-95.95,161.78-190.23.1-2.43.14-4.87.14-7.32s0-4.89-.14-7.32a200.22,200.22,0,0,0-40.19-113.46c-3.13-4.17-6.43-8.23-9.88-12.14A201,201,0,0,0,257.32,48.67c-2.43-.1-4.87-.14-7.32-.14s-4.89,0-7.32.14A201,201,0,0,0,98.74,117.08c-3.45,3.91-6.75,8-9.88,12.14A200.22,200.22,0,0,0,48.67,242.68H14.74A233.4,233.4,0,0,1,70.61,97.61q5-5.83,10.34-11.37c.86-.9,1.73-1.79,2.62-2.67A233.79,233.79,0,0,1,242.68,14.74q3.65-.11,7.32-.11t7.32.11A233.79,233.79,0,0,1,416.43,83.57c.89.88,1.76,1.77,2.62,2.67q5.38,5.54,10.34,11.37a233.4,233.4,0,0,1,55.87,145.07q.11,3.65.11,7.32T485.26,257.32Z"/></g></g></svg>