<svg width="160" height="160" viewBox="0 0 160 160" fill="none" xmlns="http://www.w3.org/2000/svg">
<g clip-path="url(#clip0_804_1543)">
<circle cx="80" cy="80" r="80" fill="#222222"/>
<g clip-path="url(#clip1_804_1543)">
<path d="M143 77.675C142.575 63.0367 137.022 49.0125 127.312 38.05C126.462 37.1125 125.6 36.1875 124.688 35.275C113.433 23.983 98.274 17.4415 82.3375 17C81.0875 17 79.8375 17 78.675 17C62.7288 17.4423 47.5607 23.9883 36.3 35.2875C35.4375 36.1625 34.5625 37.075 33.7125 38.025C23.9907 48.9873 18.4294 63.0167 18 77.6625C18 78.275 18 78.9125 18 79.5C18 80.0875 18 80.75 18 81.3375V82.225H30.025C30.5941 93.4356 34.894 104.134 42.2412 112.621C49.5884 121.107 59.5614 126.894 70.575 129.062C71.825 129.312 73.15 129.525 74.4625 129.688C75.575 129.812 76.675 129.912 77.775 129.975V142H78.6625H80.5H82.325C85.9128 141.893 89.4845 141.475 93 140.75C94.25 140.5 95.5 140.212 96.75 139.887C109.725 136.39 121.229 128.807 129.559 118.262C137.888 107.717 142.601 94.7697 143 81.3375C143 80.725 143 80.0875 143 79.5C143 78.9125 143 78.25 143 77.675ZM55.375 76.775H47.5C47.7685 73.4569 48.5398 70.1988 49.7875 67.1125L55.375 76.775ZM78.75 46.4125H79.625V40.9125H78.65C73.0055 41.1728 67.4885 42.6784 62.4943 45.3214C57.5001 47.9643 53.1523 51.6793 49.7625 56.2L46.275 50.175C50.3202 45.4738 55.29 41.6559 60.875 38.9592C66.4599 36.2624 72.5404 34.7445 78.7375 34.5C79.9 34.5 81.1 34.5 82.2625 34.5C88.4707 34.7472 94.5613 36.2724 100.153 38.9803C105.745 41.6881 110.719 45.5204 114.763 50.2375L99.3625 76.775H61.6375L52.7625 61.3875C55.6152 57.0272 59.4541 53.3996 63.9688 50.7981C68.4835 48.1966 73.5471 46.6942 78.75 46.4125ZM83.8875 117.938C93.1688 117.087 101.833 112.92 108.291 106.2C114.749 99.4802 118.569 90.6577 119.05 81.35C119.05 80.7375 119.05 80.1 119.05 79.5C119.05 78.9 119.05 78.25 119.05 77.65V76.775H105.65L118.275 54.9125C122.736 61.7159 125.256 69.6078 125.562 77.7375C125.563 78.325 125.562 78.9125 125.562 79.5C125.562 80.0875 125.562 80.75 125.562 81.2625C125.122 91.5699 121.176 101.418 114.377 109.178C107.579 116.938 98.3349 122.145 88.175 123.938C86.925 124.163 85.675 124.325 84.425 124.425L83.2625 124.513V118H83.925L83.8875 117.938ZM113.525 82.225C112.887 89.7093 109.734 96.7571 104.58 102.221C99.4249 107.684 92.5721 111.241 85.1375 112.312L102.512 82.225H113.525ZM35.5 76.775C35.9628 68.9807 38.458 61.4433 42.7375 54.9125L46.4875 61.3625C43.9247 66.1242 42.4116 71.3796 42.05 76.775H35.5ZM83.225 129.975C84.325 129.975 85.425 129.812 86.5375 129.688C87.85 129.525 89.1625 129.312 90.425 129.062C101.588 126.865 111.677 120.951 119.048 112.284C126.419 103.617 130.636 92.7086 131.013 81.3375C131.013 80.7292 131.013 80.1167 131.013 79.5C131.013 78.8833 131.013 78.2708 131.013 77.6625C130.651 67.3645 127.129 57.4273 120.925 49.2C120.15 48.1625 119.312 47.1375 118.425 46.15C113.883 40.9971 108.344 36.8193 102.141 33.8693C95.9377 30.9194 89.2008 29.2586 82.3375 28.9875C81.0875 28.9875 79.8375 28.9875 78.6625 28.9875C71.7949 29.2552 65.0532 30.9144 58.8458 33.8645C52.6384 36.8146 47.0945 40.9942 42.55 46.15C41.6875 47.1375 40.85 48.1625 40.05 49.2C34.0424 57.1893 30.56 66.792 30.05 76.775H23.5125C24.0552 64.1788 28.8139 52.13 37.025 42.5625C37.8125 41.625 38.6625 40.7 39.525 39.8125L40.1625 39.1625C50.4132 28.8784 64.2112 22.9075 78.725 22.475C79.9 22.475 81.1 22.475 82.275 22.475C96.7888 22.9075 110.587 28.8784 120.837 39.1625L121.475 39.8125C122.325 40.6875 123.175 41.6125 123.975 42.5625C132.395 52.38 137.179 64.7961 137.525 77.725C137.525 78.3125 137.525 78.9 137.525 79.5C137.525 80.1 137.525 80.75 137.525 81.275C137.131 93.6771 132.709 105.614 124.928 115.28C117.148 124.946 106.432 131.815 94.4 134.85C93.15 135.162 91.9 135.425 90.75 135.625C88.2715 136.076 85.7661 136.364 83.25 136.487L83.225 129.975ZM58.4875 82.225L76.75 113.9L77.7375 115.625V124.5L76.5875 124.412C75.3375 124.312 74.0875 124.15 72.8375 123.925C62.8411 122.164 53.7261 117.096 46.9552 109.534C40.1843 101.972 36.1501 92.3545 35.5 82.225H58.4875ZM96.2125 82.225L80.5 109.5L64.7875 82.225H96.2125Z" fill="#FFBF1C"/>
</g>
</g>
<defs>
<clipPath id="clip0_804_1543">
<rect width="160" height="160" fill="white"/>
</clipPath>
<clipPath id="clip1_804_1543">
<rect width="125" height="125" fill="white" transform="translate(18 17)"/>
</clipPath>
</defs>
</svg>
