<svg width="760" height="84" viewBox="0 0 760 84" fill="none" xmlns="http://www.w3.org/2000/svg">
<line y1="83.5" x2="760" y2="83.5" stroke="#ECD1D1"/>
<path d="M411 36.405C410.745 27.622 407.413 19.2075 401.587 12.63C401.077 12.0675 400.56 11.5125 400.012 10.965C393.26 4.18981 384.164 0.264897 374.603 0C373.853 0 373.103 0 372.405 0C362.837 0.265374 353.736 4.19298 346.98 10.9725C346.463 11.4975 345.938 12.045 345.427 12.615C339.594 19.1924 336.258 27.61 336 36.3975C336 36.765 336 37.1475 336 37.5C336 37.8525 336 38.25 336 38.6025V39.135H343.215C343.556 45.8614 346.136 52.2806 350.545 57.3724C354.953 62.4643 360.937 65.9366 367.545 67.2375C368.295 67.3875 369.09 67.515 369.877 67.6125C370.545 67.6875 371.205 67.7475 371.865 67.785V75H372.397H373.5H374.595C376.748 74.9357 378.891 74.6847 381 74.25C381.75 74.1 382.5 73.9275 383.25 73.7325C391.035 71.6337 397.937 67.0841 402.935 60.757C407.933 54.43 410.761 46.6618 411 38.6025C411 38.235 411 37.8525 411 37.5C411 37.1475 411 36.75 411 36.405ZM358.425 35.865H353.7C353.861 33.8741 354.324 31.9193 355.073 30.0675L358.425 35.865ZM372.45 17.6475H372.975V14.3475H372.39C369.003 14.5037 365.693 15.407 362.697 16.9928C359.7 18.5786 357.091 20.8076 355.057 23.52L352.965 19.905C355.392 17.0843 358.374 14.7936 361.725 13.1755C365.076 11.5574 368.724 10.6467 372.443 10.5C373.14 10.5 373.86 10.5 374.557 10.5C378.282 10.6483 381.937 11.5635 385.292 13.1882C388.647 14.8129 391.631 17.1122 394.058 19.9425L384.817 35.865H362.182L356.858 26.6325C358.569 24.0163 360.872 21.8398 363.581 20.2788C366.29 18.7179 369.328 17.8165 372.45 17.6475ZM375.533 60.5625C381.101 60.0522 386.3 57.552 390.174 53.52C394.049 49.4881 396.341 44.1946 396.63 38.61C396.63 38.2425 396.63 37.86 396.63 37.5C396.63 37.14 396.63 36.75 396.63 36.39V35.865H388.59L396.165 22.7475C398.842 26.8295 400.353 31.5647 400.538 36.4425C400.538 36.795 400.538 37.1475 400.538 37.5C400.538 37.8525 400.538 38.25 400.538 38.5575C400.273 44.7419 397.905 50.6508 393.826 55.3068C389.747 59.9628 384.201 63.0869 378.105 64.1625C377.355 64.2975 376.605 64.395 375.855 64.455L375.158 64.5075V60.6H375.555L375.533 60.5625ZM393.315 39.135C392.932 43.6256 391.041 47.8543 387.948 51.1324C384.855 54.4104 380.743 56.5447 376.283 57.1875L386.708 39.135H393.315ZM346.5 35.865C346.778 31.1884 348.275 26.666 350.843 22.7475L353.093 26.6175C351.555 29.4745 350.647 32.6277 350.43 35.865H346.5ZM375.135 67.785C375.795 67.785 376.455 67.6875 377.123 67.6125C377.91 67.515 378.697 67.3875 379.455 67.2375C386.153 65.919 392.206 62.3704 396.629 57.1703C401.051 51.9701 403.582 45.4252 403.808 38.6025C403.808 38.2375 403.808 37.87 403.808 37.5C403.808 37.13 403.808 36.7625 403.808 36.3975C403.591 30.2187 401.477 24.2564 397.755 19.32C397.29 18.6975 396.787 18.0825 396.255 17.49C393.53 14.3983 390.206 11.8916 386.484 10.1216C382.763 8.35162 378.72 7.35515 374.603 7.1925C373.853 7.1925 373.103 7.1925 372.397 7.1925C368.277 7.35315 364.232 8.34865 360.507 10.1187C356.783 11.8888 353.457 14.3965 350.73 17.49C350.212 18.0825 349.71 18.6975 349.23 19.32C345.625 24.1136 343.536 29.8752 343.23 35.865H339.307C339.633 28.3073 342.488 21.078 347.415 15.3375C347.887 14.775 348.397 14.22 348.915 13.6875L349.297 13.2975C355.448 7.12705 363.727 3.5445 372.435 3.285C373.14 3.285 373.86 3.285 374.565 3.285C383.273 3.5445 391.552 7.12705 397.702 13.2975L398.085 13.6875C398.595 14.2125 399.105 14.7675 399.585 15.3375C404.637 21.228 407.508 28.6777 407.715 36.435C407.715 36.7875 407.715 37.14 407.715 37.5C407.715 37.86 407.715 38.25 407.715 38.565C407.478 46.0063 404.825 53.1682 400.157 58.9677C395.489 64.7673 389.059 68.8892 381.84 70.71C381.09 70.8975 380.34 71.055 379.65 71.175C378.163 71.4454 376.66 71.6183 375.15 71.6925L375.135 67.785ZM360.292 39.135L371.25 58.14L371.842 59.175V64.5L371.153 64.4475C370.403 64.3875 369.653 64.29 368.903 64.155C362.905 63.0984 357.436 60.0575 353.373 55.5203C349.311 50.9831 346.89 45.2127 346.5 39.135H360.292ZM382.927 39.135L373.5 55.5L364.073 39.135H382.927Z" fill="#909090"/>
</svg>
